<svg id="Livello_1" data-name="Livello 1" xmlns="http://www.w3.org/2000/svg" viewBox="0 0 447.87 447.87"><defs><style>.cls-1{fill:#fff;stroke:#000;stroke-miterlimit:10;stroke-width:2px;}</style></defs><title>fettaTavola disegno 47</title><path class="cls-1" d="M145.28,301.12c-28.77,1-54.8-15.83-59.69-45.8-5.39-33,16.34-55.61,37.2-61.78A173.18,173.18,0,0,1,147,187.85a150.72,150.72,0,0,0,26-6.56c7.88-2.6,15.8-5.22,23.88-7,24.6-5.6,50.28,6.81,63.29,29.6a33.59,33.59,0,0,1,4.34,12.6c.88,7,1.85,14,2.47,21,.84,9.62,5.47,16.87,13.22,22.3,5.24,3.67,10.64,7.12,15.78,10.91,11.11,8.19,19.12,18.69,23.43,31.94,11.67,35.77-10.46,72.78-47.27,80.42-26.08,5.41-57.94-8.09-69.86-38-3.11-7.81-3.9-16.12-5.16-24.32-.68-4.42-.75-8.93-1.5-13.34a15,15,0,0,0-16.76-12.4c-7,.92-13.77,2.79-20.67,4.08C152.54,300,146.87,300.86,145.28,301.12Zm114.26-.25a21.54,21.54,0,0,0-20.69,20.74c-.24,11.47,10.51,22.24,21.92,21.66,9.51-.49,21.07-8.41,20.36-22.9C280.61,309.67,270.46,300.23,259.54,300.87Zm-98.38-55.69c-.39-11.11-10-20.52-21-20.57-11.4-.05-22.23,11.08-21.62,22.21.6,10.9,10.46,20.37,21.36,20.44C151.31,267.35,162.07,257.36,161.16,245.18Zm47.34-37.47a21.24,21.24,0,0,0-20.79,20.5c-.31,11.68,9.83,21.47,22,21.22a20.93,20.93,0,0,0,20.64-20.51C230.5,216.86,220.81,207.44,208.5,207.71Z"/><path class="cls-1" d="M337.49,236.55c-21.08-.74-36.62-11.24-47.12-29.82a20.09,20.09,0,0,1-2.05-5.3c-6.71-29.62,7.81-56.6,35.08-65.55,21.41-7,50.79,2.6,62.06,28.11A51.41,51.41,0,0,1,355,233.93a42,42,0,0,1-7.4,1.8C344.48,236.18,341.29,236.26,337.49,236.55Zm.3-30.26c12.62.92,22-10.59,22.16-21.32s-9.82-20.58-20.71-21.09-21,8.57-21.72,19.61C316.76,195.84,325.75,206,337.79,206.29Z"/></svg>