<svg id="Livello_1" data-name="Livello 1" xmlns="http://www.w3.org/2000/svg" viewBox="0 0 447.87 447.87"><defs><style>.cls-1{fill:#fff;stroke:#000;stroke-miterlimit:10;stroke-width:2px;}</style></defs><title>fettaTavola disegno 19</title><path class="cls-1" d="M297.8,330.7c1.9,26.36-17.06,61.53-53.22,71.81-44.66,12.69-83.7-13.14-94.86-52.35-4.08-14.34-2.8-29.18.27-43.76,1.06-5,2.31-10,3.09-15,1.76-11.43-1.43-21.53-8.94-30.24-4.18-4.84-8.54-9.52-12.79-14.3a77.37,77.37,0,0,1-14.07-22.71,47.38,47.38,0,0,1-3.48-14.84c-.8-12.88-.6-25.59,5.63-37.43,12.42-23.63,32.37-36.09,58.63-36.94,15.62-.51,30.18,4.86,42.43,15.28a102.06,102.06,0,0,1,17.65,20.15c4,5.78,7.88,11.65,12,17.35a55.36,55.36,0,0,0,13.61,13.4c6.81,4.68,13.32,4.59,19.3-.61,3.37-2.94,6.35-6.31,9.65-9.34,3.76-3.45,7.39-7.15,11.57-10,28.54-19.7,71-7.81,80.07,31.33,7.36,31.81-16.8,60.57-46.69,62-7.7.37-15.34,0-22.79-2.32a32.9,32.9,0,0,0-15.12-1.59c-3.45.54-6.05,2.42-7.11,5.62-1,3-1.89,6.27-1.57,9.29a107.12,107.12,0,0,0,3.47,18.83A87.65,87.65,0,0,1,297.8,330.7Zm35.62-86c11.75.23,22.08-10.07,21.84-21.79-.22-11-9.87-20.62-20.84-20.87-11.72-.27-22.06,10.05-21.83,21.79C312.81,234.65,322.59,244.45,333.42,244.67ZM241,251.15c.67-11.89-9.53-21.63-21.77-21.26-11,.34-20.79,10.18-20.71,20.91.07,10,9,21.88,22.25,21.25A21,21,0,0,0,241,251.15Zm3,78.52c-.87-11.12-10.26-21.46-23.08-20.39-11,.92-20.06,10.94-19.52,21.94.58,11.86,11.6,21.81,23,20.56C237,350.4,244.26,339.07,244.06,329.67ZM199.56,200.2a21.76,21.76,0,0,0-20.45-21c-11.63-.47-21.42,9.54-21.31,21.78s9.88,21.51,22.09,20.75A21.2,21.2,0,0,0,199.56,200.2Z"/></svg>