<svg id="Livello_1" data-name="Livello 1" xmlns="http://www.w3.org/2000/svg" viewBox="0 0 447.87 447.87"><defs><style>.cls-1{fill:#fff;stroke:#000;stroke-miterlimit:10;stroke-width:2px;}</style></defs><title>fettaTavola disegno 12</title><path class="cls-1" d="M157.9,326.06c.14-1.09.72-6.15,1.49-11.19q1.44-9.47,3.13-18.89c3.54-19.77-.74-38-10.7-55.15-3.2-5.52-6.76-10.84-10.07-16.3A87.87,87.87,0,0,1,133,203.4c-6.23-21.36,3.41-54.53,34.7-67a57.45,57.45,0,0,1,69.17,21.86,121.83,121.83,0,0,1,7.93,15.26c2.68,5.79,4.87,11.8,7.48,17.63a40.54,40.54,0,0,0,11.54,15.06,14.78,14.78,0,0,0,17.79.94c2.61-1.82,5.05-3.89,7.48-5.95,2.92-2.48,5.69-5.14,8.63-7.6,14.34-12,31-14.86,48.66-10.8,15.13,3.48,26.12,13,33,26.94,13,26.32,2.53,62.35-30.72,73.09-10.58,3.42-21.45,3-32.15.2-5.55-1.46-10.92-3.61-16.46-5.14-9.07-2.51-16.13.52-21.25,8.62a49.89,49.89,0,0,0-7.56,25.39c-.34,9.58-.69,19.17-2.88,28.56a93.41,93.41,0,0,1-2.16,9.32c-9.57,28-36.6,41.28-59.84,37.71-29.2-4.49-46.19-26.11-48.41-51.65C157.76,333.93,157.9,332,157.9,326.06Zm85.52-68.64c.21-12-9.83-22.37-21.3-22-10.81.34-20.18,10-20.44,21.08-.28,11.48,8.35,21,19.5,21.54C233.71,278.62,243.2,269.82,243.42,257.42Zm110.36-23.83c.23-11.88-10-22.12-21.67-21.76a21.73,21.73,0,0,0-20.81,20.79c-.33,11.61,10.24,22.24,21.73,21.85C344,254.09,353.58,244.48,353.78,233.59ZM189.61,210.93c11.19-.35,20.7-9.71,20.47-20.86-.26-12.27-9.92-21.71-22-21.26a21.33,21.33,0,0,0-20.35,20.89A21,21,0,0,0,189.61,210.93ZM214,311.14c-13.62-.58-22.71,12-22.08,21.4.78,11.5,8.71,20.39,20.88,20.75,13.46.4,21.08-10.06,21.77-19.5C235.52,320,223.18,310.76,214,311.14Z"/></svg>