<svg id="Livello_1" data-name="Livello 1" xmlns="http://www.w3.org/2000/svg" viewBox="0 0 447.87 447.87"><defs><style>.cls-1{fill:#fff;stroke:#000;stroke-miterlimit:10;stroke-width:2px;}</style></defs><title>fettaTavola disegno 1</title><path class="cls-1" d="M138.17,327.07c.4-3.14,1-9.51,2.09-15.78,2.81-15.72,5.34-31.44,6.39-47.42a106.53,106.53,0,0,1,4.43-24.43c4.7-15.08,4.52-30.2,2.48-45.51-.59-4.43-1.93-8.77-2.28-13.2-2.8-35.86,22.68-61.26,53.91-60.72,21.48.37,37.79,10.72,47.33,30.32,3,6.26,4.72,13.19,7.12,19.78,1.95,5.38,3.53,11,6.2,16a25.29,25.29,0,0,0,27.45,13.09c6.89-1.25,13.63-3.34,20.46-5,12.77-3.1,25.29-2.55,37.56,2.49C376,206.83,386.51,231,386.2,249.4c-.34,19.59-13.05,46-41.91,53.29-7.45,1.89-15,3.37-22.68,3.37-15.64,0-28.3,6.41-39,17.59a195.47,195.47,0,0,0-23.74,30c-4.11,6.45-8.6,12.69-13.33,18.7a58,58,0,0,1-20.84,16.56c-40.94,19.53-86-10.29-86.55-52.83C138.15,334.13,138.17,332.21,138.17,327.07Zm81.29,6.53c-.38-11.22-9.69-19.89-21.15-20a20.52,20.52,0,0,0-21.06,21.92c.84,12.89,9.88,20.22,21.08,20.16A20.9,20.9,0,0,0,219.46,333.6ZM203.85,152.3A20.8,20.8,0,0,0,183.44,173c0,14.34,11.66,21.52,21.87,21.35,10.79-.18,20.5-10.23,20.75-20.91C226.32,162,215.85,152,203.85,152.3ZM247,266.63a21.49,21.49,0,0,0-20.09-21.28c-11.94-.65-21.77,9-21.76,21.25s9.83,21.95,21.74,21.28A21.47,21.47,0,0,0,247,266.63Zm103.56-18.44c-.08-11.1-7.95-20.32-20.8-20.55a20.4,20.4,0,0,0-21,20.47,20.75,20.75,0,0,0,21.83,21.54C342.13,269.28,350.76,260,350.53,248.19Z"/></svg>