<svg id="Livello_1" data-name="Livello 1" xmlns="http://www.w3.org/2000/svg" viewBox="0 0 447.87 447.87"><defs><style>.cls-1{fill:#fff;stroke:#000;stroke-miterlimit:10;stroke-width:2px;}</style></defs><title>fettaTavola disegno 14</title><path class="cls-1" d="M216.28,396.78c-30.63,1-54.47-21.58-61.53-43.57-4.63-14.42-4.2-29-.37-43.46,1.64-6.16,3.77-12.2,6-18.2,6.25-17.17,3.09-32.59-8.18-46.69-4.39-5.48-8.79-11-12.79-16.74a60.24,60.24,0,0,1-10.28-45.52c4.61-28.41,30.16-45.65,51-47.15,30.33-2.18,49.88,14.31,59.23,33.79,2.75,5.75,4.89,11.8,7.57,17.59a141.36,141.36,0,0,0,7.87,15.29,35.71,35.71,0,0,0,7.59,8.54c6.73,5.52,12.1,6,18.68-.23,3.24-3.06,5.82-6.8,9-9.93,4.53-4.47,8.86-9.39,14.12-12.83,17.51-11.48,36-12.56,54.36-2.27,17.7,9.91,26.68,25.81,26.32,45.79-.53,29.71-24.65,50.71-49.92,50.36-8.38-.12-16.53-.83-24.32-4.35-5.22-2.37-10.65-4.31-16.08-6.2a11.35,11.35,0,0,0-14.1,6.7,38.61,38.61,0,0,0-2.49,11.09c-.51,9,.63,17.81,2.32,26.65a71,71,0,0,1-1.9,36c-7.33,22.39-22.78,36.54-45,43.32C228,396.39,222,396.16,216.28,396.78ZM332.54,251.29c13.84.83,22.54-11.69,22-21.31-.59-11.55-8.86-20.07-20.74-21.17C325,208,312,216.56,312,230.54,312.1,241.52,322.38,251.88,332.54,251.29ZM200.94,255c-.28,12.91,10.8,21.82,21.73,21.76,10.75-.06,20.7-10.25,20.63-21.07-.09-11.94-9.11-21.06-19.92-21.33C210.9,234.05,201.07,242.94,200.94,255Zm14.92,97.66a20.95,20.95,0,1,0,.71-41.89c-13.24-.22-22.25,10.63-21.46,21.54C196.11,346.14,204.73,352,215.86,352.67ZM185.34,172.21c-10.8.16-20.21,8.52-20.09,21.06.12,12.26,9.95,21.35,22.57,20.52a20.66,20.66,0,0,0,19.22-22C206.37,180.17,197.28,171.86,185.34,172.21Z"/></svg>