<svg id="Livello_1" data-name="Livello 1" xmlns="http://www.w3.org/2000/svg" viewBox="0 0 447.87 447.87"><defs><style>.cls-1{fill:#fff;stroke:#000;stroke-miterlimit:10;stroke-width:2px;}</style></defs><title>fettaTavola disegno 44</title><path class="cls-1" d="M203.65,175.1c26-.73,42.46,9,55.24,25.75a41.46,41.46,0,0,1,8.63,23c.27,4.47.38,9,.62,13.42.59,11.44,5,21,14.09,28.2,5.5,4.37,11,8.82,16,13.68A60.17,60.17,0,0,1,317.14,320c1.63,26.65-15.77,53-41.37,60.41-42.31,12.28-74.69-14.73-79.62-49.83-.89-6.32-1.1-12.75-2.16-19-2-12-9.07-17.76-21.28-17.34-5.08.17-10.12,1.35-15.19,2-11.58,1.39-22.94.76-33.94-3.63a55.47,55.47,0,0,1,5.11-105,109.62,109.62,0,0,1,18.78-3.69A337.94,337.94,0,0,0,189.05,177,118.05,118.05,0,0,1,203.65,175.1ZM277.26,324c.64-15-12-22.29-20.9-22.24a21.31,21.31,0,0,0,0,42.62C267.34,344.46,276.89,335.13,277.26,324ZM143.77,219.84a21.45,21.45,0,0,0-21.15,20.22c-.68,11.52,9.65,22.06,21.46,21.91a21.48,21.48,0,0,0,21.11-22.21C164.64,228.77,155,219.77,143.77,219.84Zm87.46,10.62c-.34-11.27-9.61-20.52-20.68-20.63a21.32,21.32,0,1,0,1.36,42.61C220.15,252,232,243.53,231.23,230.46Z"/><path class="cls-1" d="M287.79,190.25c1.29-20.42,9.78-36.38,28.73-46a40.39,40.39,0,0,1,16.56-4.05c8.93-.49,17.8-.44,26.16,3.68,19.84,9.76,29.2,25.77,28.6,47.7-.5,18-8.58,31.88-24.18,40.74-18.28,10.39-36.56,9.32-54.2-2a53.19,53.19,0,0,1-7.4-6C292.27,215.12,286.24,204.34,287.79,190.25Zm50.33,20.12c13.59.17,21.72-11.33,21.63-21.75-.08-10.74-10.31-20.68-21.06-20.54-11,.14-21.74,8.32-21.28,21.86A20.89,20.89,0,0,0,338.12,210.37Z"/></svg>