<svg id="Livello_1" data-name="Livello 1" xmlns="http://www.w3.org/2000/svg" viewBox="0 0 447.87 447.87"><defs><style>.cls-1{fill:#fff;stroke:#000;stroke-miterlimit:10;stroke-width:2px;}</style></defs><title>fettaTavola disegno 26</title><path class="cls-1" d="M385.21,213.44c1.23,31.45-28.93,57.26-62.53,48.55a105.47,105.47,0,0,1-12.55-4.61c-4.74-1.9-9.38-4-14.1-6-6.48-2.64-12.69,1-14.88,8-3.14,10.09-2.24,20.2,1,30.15,2.6,7.87,5.67,15.63,7.8,23.63,7.13,26.73-5.37,53.32-26.59,66.33-27.4,16.8-72.33,10.44-87.64-32.3-2.31-6.45-2.23-13.82-2.82-20.81-.49-5.71-.27-11.49-.46-17.23-.47-14.29-6.28-25.87-17.73-34.52q-6.87-5.2-13.82-10.3A90.84,90.84,0,0,1,124,248.85c-23.45-28.68-15-71.59,17.69-88.55,18.31-9.5,37-8.8,55.23.22,6.27,3.09,12.13,7.06,18,10.9,14.43,9.44,28.73,19.07,43.15,28.52a90.66,90.66,0,0,0,10,5.57c5,2.46,10.1,1.28,13.76-3.12,2-2.45,3.82-5.11,5.65-7.72,2.21-3.13,4.21-6.42,6.56-9.44,10.88-14,24.82-21.37,43-20.78,21.49.69,36,11.05,44.73,30.3C384.5,200.75,385,207,385.21,213.44ZM217.64,266.12c12.14,0,22.13-10,21.54-21.62A21.6,21.6,0,0,0,218,224.32a21.07,21.07,0,0,0-21.38,21.74A20.8,20.8,0,0,0,217.64,266.12Zm118.62-31.24a20.8,20.8,0,0,0,20.36-20.77c.15-12.12-9.88-22.24-21.67-21.41-13.5,1-21.05,11.25-20.29,22.72A20.9,20.9,0,0,0,336.26,234.88ZM168.85,190.62c-14.37-.18-22,12.69-21.6,21.77.44,11.05,10.29,20.66,21.19,20.36,13.87-.38,21.62-10.63,21.32-21.85A21,21,0,0,0,168.85,190.62Zm42.52,137.75a21.17,21.17,0,0,0,19.74,21.54c13.34.77,22.36-10.74,22.8-20.83.48-11.22-10.6-22.1-22.1-21.55C219.89,308.1,211,317.58,211.37,328.37Z"/></svg>