<svg id="Livello_1" data-name="Livello 1" xmlns="http://www.w3.org/2000/svg" viewBox="0 0 447.87 447.87"><defs><style>.cls-1{fill:#fff;stroke:#000;stroke-miterlimit:10;stroke-width:2px;}</style></defs><title>fettaTavola disegno 13</title><path class="cls-1" d="M276.59,321c0,1.22.21,7,0,12.71-1.21,28.95-21.65,53.32-49,58.55-29.84,5.71-56.81-7.95-69.42-35.16a57.28,57.28,0,0,1-5.09-29.85c.77-8.21,1.84-16.47,4.93-24.33a91,91,0,0,0,4.1-14.75c2.84-13.75.87-26.7-7.37-38.34-3.31-4.69-7-9.15-10.3-13.82s-6.7-9.35-9.64-14.27c-8.71-14.57-9.54-30.61-5.74-46.38,4.23-17.62,15.63-30.58,32.07-38.46,24.73-11.86,59-6.6,77.24,22.49,3.36,5.35,5.66,11.4,8.13,17.26s4.42,12,6.87,17.87A39.41,39.41,0,0,0,264.27,210c5.26,4.43,12.27,4.65,17.42.07,2.85-2.54,5.4-5.42,8.15-8.08,3.67-3.55,7.15-7.34,11.14-10.49,19.85-15.66,54.44-14.51,72,9,21.29,28.44,8.81,66.33-21.07,78.32-12.26,4.92-25.06,4.26-37.63.6-4.27-1.25-8.31-3.3-12.54-4.74a62.4,62.4,0,0,0-9.23-2.34A12.22,12.22,0,0,0,279.84,279a29.79,29.79,0,0,0-3.29,8.89A140.18,140.18,0,0,0,275.39,305C275.33,308.85,275.93,312.67,276.59,321Zm-68.2-130.38c-.41-10.93-10.21-20.58-21-20.7-11.34-.12-22.06,10.92-21.58,22.22.47,11,10.18,20.36,21.19,20.46A21.38,21.38,0,0,0,208.39,190.64Zm13.44,44.29c-10.81-.24-20.4,9.17-21.16,20.51s10.25,22.37,21.58,22.22c11.71-.14,21.57-10.8,21-22.65A21.41,21.41,0,0,0,221.83,234.93Zm110,17.56c12.13.33,22.29-9.24,22.26-21,0-10.75-9.66-20.38-20.73-20.74a20.88,20.88,0,0,0-21.92,21.11C311.57,243.44,320.23,252.18,331.88,252.49Zm-96.23,78.88A21,21,0,0,0,214.87,311c-14.28-.26-22.15,12.76-21.8,21.64.44,11,10.25,20.7,21.12,20.47C228.42,352.76,236,342.28,235.65,331.37Z"/></svg>