<svg id="Livello_1" data-name="Livello 1" xmlns="http://www.w3.org/2000/svg" viewBox="0 0 447.87 447.87"><defs><style>.cls-1{fill:#fff;stroke:#000;stroke-miterlimit:10;stroke-width:2px;}</style></defs><title>fettaTavola disegno 20</title><path class="cls-1" d="M331.4,271.72c-4.64-.5-9.72-1.17-14.81-1.54a104.93,104.93,0,0,0-13.38-.32c-4.95.28-8,3.46-9.88,7.9a26.07,26.07,0,0,0-1.26,15.06q2,11.32,4.58,22.54c6.35,28.07-7.86,66.62-42.75,81.81-34.07,14.84-73.34,2.16-92.07-28.84-9.6-15.88-12.91-33.15-10.46-51.55.93-7,1.95-13.91,2.61-20.9,1.21-12.63-2.43-24-9.6-34.32-4-5.76-8.4-11.27-12.6-16.91a85,85,0,0,1-13.61-27.24c-4.38-15-2-29.2,4.69-42.75a61,61,0,0,1,83.57-26.34,87.58,87.58,0,0,1,19.8,15c5.06,4.89,9.79,10.12,15,14.78,6.2,5.5,12.71,10.68,19.3,15.71a27.49,27.49,0,0,0,8.46,4.38c5.65,1.72,11.43,1.85,16.49-1.92,4.09-3.05,8-6.37,11.92-9.62a68.49,68.49,0,0,1,17.79-11.15c25-10.1,54.75.86,65.48,26.84a50.87,50.87,0,0,1-21.13,63.3C351,270.64,341.53,271.68,331.4,271.72ZM224,309a21.43,21.43,0,0,0-20.9,20.62c-.41,11.33,10.44,22.38,21.68,22.07,10.71-.29,20.48-10.18,21-21C246.15,321.75,238,308.6,224,309ZM241.43,250c-.09-11-9.52-20.64-20.63-21.1-11.66-.47-22.2,9.75-22.15,21.5,0,10.74,9.86,20.8,20.63,21.13C231,271.85,241.53,261.62,241.43,250Zm71.91-27.28c.31,12.1,10.29,20.11,20.82,20.56,11.7.5,21.69-10,21.28-21.92-.44-12.28-10.22-21-22.66-20.28A20.94,20.94,0,0,0,313.34,222.67Zm-136.9.49c11.87.49,22.24-9.19,22.42-20.91.16-10.71-9.36-20.39-20.47-20.83-11.65-.46-21.1,7.64-22,18.88A20.91,20.91,0,0,0,176.44,223.16Z"/></svg>