<svg id="Livello_1" data-name="Livello 1" xmlns="http://www.w3.org/2000/svg" viewBox="0 0 447.87 447.87"><defs><style>.cls-1{fill:#fff;stroke:#000;stroke-miterlimit:10;stroke-width:2px;}</style></defs><title>fettaTavola disegno 46</title><path class="cls-1" d="M86.33,245.65c.08-25.76,11.88-42.57,33.58-52.61a79.15,79.15,0,0,1,18.23-5.65,239.29,239.29,0,0,0,40.58-11.17A88.93,88.93,0,0,1,203,170.66c18.12-1.54,34.17,3.18,47.74,15.53,2.84,2.57,5.59,5.26,8.2,8.06,7.19,7.73,11.63,16.61,12,27.46a182.46,182.46,0,0,0,2,19,27.19,27.19,0,0,0,9,16.52c3.76,3.45,7.91,6.48,11.73,9.88,4.77,4.24,9.87,8.25,14,13.09,32.45,38.36,11.72,90.6-28.49,102.92-36.21,11.1-66.72-8-78.52-34.45-3.39-7.62-5.89-15.55-6.07-24a43.47,43.47,0,0,0-3.42-16.81c-2.81-6.32-7.55-10.17-14.62-10.75-7.73-.63-15.28.56-22.83,2.14-13,2.74-25.45.17-37.25-5.4C101,286.62,85.36,268.76,86.33,245.65Zm55.4-22.09c-13.68-.76-22,11.72-21.48,21.49.56,11.07,9.85,20.31,21,20.43,11.94.14,22.25-10.1,21.46-21.81C161.91,232.31,153.6,223.24,141.73,223.56Zm96.62,98.92c-.41,13.77,11.39,20.6,20,21.26,11.22.87,21.81-9.72,21.78-21.58a21.07,21.07,0,0,0-20.2-21C247.68,300.73,238.28,310,238.35,322.48ZM230.54,229c-.11-11.74-8.95-20.43-20.83-20.47S189,217.26,188.84,229c-.12,12.31,10.23,23,21.77,21.71C224.14,249.16,230.58,240.18,230.54,229Z"/><path class="cls-1" d="M338.6,237c-21.78.12-36.74-10.54-48-27.31a21.66,21.66,0,0,1-3.47-8.77c-2.32-16.4.54-31.76,10.75-45.15,14.37-18.85,36.2-23.37,56.44-17.66,19.81,5.59,34,24.57,35.16,45.31,1.14,19.67-8.92,40.84-31,50.22C353,235.93,346.45,237,338.6,237Zm-.66-29.7c12.43.21,22.11-9.1,21.9-21.08a21.25,21.25,0,0,0-20.6-20.66c-14.34-.41-22,11.45-21.91,21.24A20.77,20.77,0,0,0,337.94,207.27Z"/></svg>