<svg id="Livello_1" data-name="Livello 1" xmlns="http://www.w3.org/2000/svg" viewBox="0 0 447.87 447.87"><defs><style>.cls-1{fill:#fff;stroke:#000;stroke-miterlimit:10;stroke-width:2px;}</style></defs><title>fettaTavola disegno 30</title><path class="cls-1" d="M163.76,157.37a51.73,51.73,0,0,1,22.47,4.43c5.85,2.55,11.63,5.32,17.2,8.42,7.26,4.05,14.15,8.76,21.44,12.75a192.83,192.83,0,0,1,40.41,29c2.77,2.63,5.43,5.53,9.39,6.29a4.39,4.39,0,0,0,3.41-.85,13.2,13.2,0,0,0,3.16-4.66c2-5.39,3.35-11,5.6-16.3,2.49-5.85,5-11.93,8.7-17,11.49-15.63,27.35-23.33,46.66-20.94,20,2.47,35,13.4,41.25,32.78,10.88,33.6-10.11,61.45-37.44,65.76-14.6,2.31-28.06-.19-40.18-8.62-5.76-4-11-8.77-16.56-13.07a32.14,32.14,0,0,0-6.48-4,3.86,3.86,0,0,0-3.44.74,11.87,11.87,0,0,0-3,4.77c-4.09,14-3.79,27.8,3.12,41,3.26,6.23,7,12.2,10.38,18.38A66.51,66.51,0,0,1,298,327.5c.61,32.36-26.71,60-59.45,60.16-27.23.11-48.12-17.44-56.05-36.55-3.52-8.47-4.3-17.33-4.73-26.28-.25-5.1,0-10.23-.22-15.34-.52-12.69-6.29-21.88-18.21-26.91-5.3-2.24-10.53-4.64-15.83-6.89-7.71-3.28-15-7.3-21-13.18-16.85-16.49-23.66-36.25-17.71-59.4,6.15-23.91,22.23-38.2,45.7-44.43C154.69,157.55,159.31,157.77,163.76,157.37ZM315.66,208c-.07,11.95,10.34,22.51,21.52,21.85a22,22,0,0,0,20.36-21.21c.21-12.29-9.21-21.62-21.6-21.41A20.64,20.64,0,0,0,315.66,208Zm-78.42,33.33c-.3-11.47-9.3-19.89-20.88-20.1C202.18,221,194.69,233.12,195,243c.34,11,10.33,20.68,21.09,20.44C226.64,263.22,237.76,255.14,237.24,241.35Zm22.16,86.22c0-11.66-10.47-21.58-22.41-21.16a21.39,21.39,0,0,0-20.27,21.17c.05,11.08,9.14,20.87,20.27,21.35C247.84,349.39,258.7,340.44,259.4,327.57ZM184,217.68a20.73,20.73,0,0,0-20.58-21c-9.67-.13-21.65,6.85-21.09,22.36.42,11.72,9.41,19.95,21.5,19.7C175.6,238.52,184.2,229.54,184,217.68Z"/></svg>