<svg id="Livello_1" data-name="Livello 1" xmlns="http://www.w3.org/2000/svg" viewBox="0 0 447.87 447.87"><defs><style>.cls-1{fill:#fff;stroke:#000;stroke-miterlimit:10;stroke-width:2px;}</style></defs><title>fettaTavola disegno 24</title><path class="cls-1" d="M229.79,402.22c-35.07,1.28-64.86-25.84-71.52-55.65-2.42-10.79-3.53-21.34-1-32.22,1.31-5.59,1.91-11.34,2.87-17,2.25-13.17-2-23.89-12.16-32.4-4.41-3.7-8.88-7.32-13.14-11.19A69.45,69.45,0,0,1,116,225.32c-8.39-23.1,1.9-59.39,35.88-71.23a57.44,57.44,0,0,1,49.91,5.09c7.75,4.64,14.26,10.73,20.94,16.7q17.14,15.35,34.71,30.19c3.38,2.84,7.4,5,11.29,7.15,3,1.67,8.51.33,10.43-2.55,3.18-4.77,6.17-9.68,9.06-14.63a72.69,72.69,0,0,1,12.87-16.6c22.72-21.34,68.71-17.54,81.22,21.34,10.85,33.67-12.79,63.66-44.86,65.55C327,267,317.28,264.12,307.8,260c-5.25-2.27-10.15-5.44-16.07-6-2.93-.27-6.66,2.28-6.91,5.3a33.38,33.38,0,0,0-.14,7.6,45.91,45.91,0,0,0,2.55,9.19c2,5.37,4.5,10.59,6.59,15.94s4,10.78,5.87,16.19c11.77,33.25-7.36,77.58-47.3,90.45a43.74,43.74,0,0,1-7.35,2.07C240,401.43,234.88,401.75,229.79,402.22Zm20.91-74c-.52-12-10.62-20.65-23.13-19.85-11.08.72-20.25,10.93-19.49,21.7.78,11,10.52,20.3,21.34,20.32C241.1,350.39,251.2,339.87,250.7,328.21Zm-79.91-98.68c13,.47,22.22-11.36,22.06-21.5-.16-10.54-10.07-20.47-20.85-21-11.52-.6-22,9.83-21.78,21.73A21.26,21.26,0,0,0,170.79,229.53Zm68.82,17c-.16-11.65-11.31-22.24-22.36-21.25S196.8,236,197.11,246.92a21.17,21.17,0,0,0,22.37,20.94C230.64,267.14,239.76,257.67,239.61,246.57Zm116.17-30.68c-.18-11.95-8.16-20.07-20.4-20.39-13.11-.35-21.6,9.77-21.3,21.53a21,21,0,0,0,20.55,20.53C344.3,237.9,356.37,230.29,355.78,215.89Z"/></svg>