<svg id="Livello_1" data-name="Livello 1" xmlns="http://www.w3.org/2000/svg" viewBox="0 0 447.87 447.87"><defs><style>.cls-1{fill:#fff;stroke:#000;stroke-miterlimit:10;stroke-width:2px;}</style></defs><title>fettaTavola disegno 2</title><path class="cls-1" d="M384.29,245.16c.54,29-21,55.43-53.11,56.7-5.68.22-11.42-.83-17.11-1.42-3.81-.4-7.57-1.25-11.37-1.52-9-.66-16.24,2.91-21.92,9.63a45,45,0,0,0-8.63,14.81c-2.21,6.66-4.79,13.22-6.56,20a87.54,87.54,0,0,1-8.27,21.36c-14,24.52-35.08,36.59-63.43,34.31-27.65-2.22-46-17.47-55.83-42.9-5.7-14.8-5.14-30.14.24-45a225.43,225.43,0,0,1,9.86-22.83c6.24-12.73,10-26.15,12.83-40a56.65,56.65,0,0,0-3.33-33.77c-2.18-5.31-4.53-10.55-6.74-15.85-5.38-12.87-5.85-26.4-2.55-39.51,4.09-16.24,14.43-28.51,29.78-35.55,37.54-17.23,74.78,7.09,80.25,39.68,1.16,6.91,2.14,13.87,2.89,20.84a43.7,43.7,0,0,0,4,14.68,16,16,0,0,0,19.23,8.55c4.24-1.34,8.25-3.38,12.36-5.1,5.88-2.46,11.66-5.19,17.65-7.32,24-8.56,61.42,4.24,69.14,42.88A45.47,45.47,0,0,1,384.29,245.16ZM199.11,313.51c-11.21.21-20.79,9.41-21.15,20.3-.37,11.39,10.32,22.22,21.85,21.72,12.39-.54,21.43-10.46,20.9-22.43C220.33,324.44,212,312.82,199.11,313.51Zm3.81-117.43c10.76.12,20.66-9.48,21.24-20.38a21.44,21.44,0,0,0-21.24-22.23c-10.76-.31-20.66,9.31-21.32,20.35C181,183.36,188.93,195.72,202.92,196.08Zm1.31,70.64c.5,10.87,8.68,19.76,21.22,20.27,11.62.47,22-10.77,21.39-22.19-.62-11-10.39-20.15-21.42-20.19A21.24,21.24,0,0,0,204.23,266.72ZM351,247.08c0-11.07-9.31-20.79-20.42-21a21.11,21.11,0,0,0-22.09,21.32c.21,10.67,7.79,20.1,20.5,21.16C340.46,269.48,351,258.91,351,247.08Z"/></svg>