<svg id="Livello_1" data-name="Livello 1" xmlns="http://www.w3.org/2000/svg" viewBox="0 0 447.87 447.87"><defs><style>.cls-1{fill:#fff;stroke:#000;stroke-miterlimit:10;stroke-width:2px;}</style></defs><title>fettaTavola disegno 36</title><path class="cls-1" d="M161.36,173.76a32.6,32.6,0,0,1,3.83,0c19,2.15,38,4.46,56.75,8.26A62.88,62.88,0,0,1,255,200.15c9.87,10,15.18,21.89,15.7,35.92.16,4.46.3,8.94.22,13.4-.18,10.06,3.43,18.67,9.62,26.4,4,5,8,10,11.73,15.13A56.11,56.11,0,0,1,303.14,327c-.82,23.16-11.56,40.21-32.29,50.33-21.58,10.54-42.26,7.57-61.1-6.85-13.38-10.24-20.15-24.42-21.56-41.12-.43-5.08-.12-10.23-.61-15.3a58.49,58.49,0,0,0-2.31-11.17,20.09,20.09,0,0,0-10.87-12.76,125.86,125.86,0,0,0-16.12-5.83c-7.29-2.26-14.86-3.73-22-6.39-19.62-7.31-30.8-22.05-35-42.19-3.67-17.76,5.32-45.08,30.2-56.81C140.62,174.57,147.61,173.34,161.36,173.76ZM225,324.92c-1,13.58,11.39,22.18,21.25,21.8,11.14-.43,20.55-9.59,21-20.66.41-11.4-10.19-22.12-21.72-22C234.51,304.25,225.22,313.69,225,324.92ZM155.27,248.2A21,21,0,0,0,176,227.71c.26-11.86-9.68-21.49-21.9-21.22A21.07,21.07,0,0,0,133.4,227C133.2,239,143,248.44,155.27,248.2Zm79.21-10.51c.79-12.24-10.53-22-21.7-21.65-10.77.35-21.06,10.38-20.92,21C192,249,202.52,258.84,214,258.78,222.59,258.74,235.05,249.83,234.48,237.69Z"/><path class="cls-1" d="M338.16,154.81c22.21.23,40.65,15.79,44.09,37.61a45.79,45.79,0,0,1-31,50.87c-20.24,6.47-46-3.33-56.62-24.38a22.53,22.53,0,0,1-2.08-5.31c-5.68-26.48,8.79-48.33,27-55.34A49.24,49.24,0,0,1,338.16,154.81Zm20.1,45.76c.16-11.7-8.28-21.25-19.75-21.77-10.21-.45-22,6.86-21.86,21.52.12,11.88,8.72,20.46,20.66,20.51S358.09,212.27,358.26,200.57Z"/></svg>