<svg id="Livello_1" data-name="Livello 1" xmlns="http://www.w3.org/2000/svg" viewBox="0 0 447.87 447.87"><defs><style>.cls-1{fill:#fff;stroke:#000;stroke-miterlimit:10;stroke-width:2px;}</style></defs><title>fettaTavola disegno 5</title><path class="cls-1" d="M384.83,243.57c.63,31.4-28.19,58.5-63,53.35-7.58-1.12-15.14-2.49-22.75-3.25-8.3-.82-14.92,2.57-19.73,9.41a45.05,45.05,0,0,0-7.44,15.43q-3.33,14-6.88,27.87c-2.71,10.68-7.31,20.46-14.77,28.66-11.7,12.87-26,19.67-43.71,20.72-32.63,1.93-62-21.59-65.6-58.76-.42-4.36.34-8.9,1-13.29,1.52-10.18,5.27-19.7,9.05-29.21,4.73-11.91,8.11-24.14,9.08-37.05s-.67-25.47-6.52-37.25c-2-4-4.18-7.93-5.8-12.08a129.73,129.73,0,0,1-5.47-16.32c-6.84-27.73,10.05-59.08,37.57-67,33.94-9.78,63.32,6,73.62,37.28,2,6,2.83,12.42,4.32,18.61,1.18,5,2.33,9.94,3.93,14.76a23.74,23.74,0,0,0,3.89,6.54,14.74,14.74,0,0,0,17.23,4.66c3.52-1.49,6.88-3.36,10.23-5.19,4.49-2.45,8.74-5.37,13.37-7.49,16-7.33,32.18-7.44,48.16.1C373.6,203,385.72,223.28,384.83,243.57Zm-186-43.19c11.11-.08,20.78-9.32,21.24-20.28.47-11.46-10.05-22.62-21.56-22-11.66.59-20.56,8.84-21.1,20.46C176.82,190.45,186.72,200.45,198.78,200.38ZM331.05,221.9c-9.8-.76-21.49,6.93-21.59,21.56-.08,10.92,9.55,20.59,20.5,21.14,11.25.56,21.45-10,21.56-21.94C351.63,231.3,340.89,221.34,331.05,221.9ZM203.47,263.34a21.34,21.34,0,0,0,20.22,21.18c10.91.51,21.7-8.43,22.14-21.5.36-10.75-9.81-20.8-20.57-21.26C213.58,241.26,203.41,251.33,203.47,263.34Zm.47,49.73c-10.66-.21-20.64,6.41-21.34,20-.63,12.22,8.53,22,21.59,21.63a20.46,20.46,0,0,0,20.38-21C224.52,322,215.71,313.2,203.94,313.07Z"/></svg>