<svg id="Livello_1" data-name="Livello 1" xmlns="http://www.w3.org/2000/svg" viewBox="0 0 447.87 447.87"><defs><style>.cls-1{fill:#fff;stroke:#000;stroke-miterlimit:10;stroke-width:2px;}</style></defs><title>fettaTavola disegno 43</title><path class="cls-1" d="M206,179.87c7.19-.45,14.05,1.22,20.66,3.67,20.32,7.52,32.47,21.92,35.52,43.57.72,5.06.74,10.21,1.5,15.26A30.71,30.71,0,0,0,276,263.32c5.12,3.82,10.38,7.47,15.36,11.47a64,64,0,0,1,23.21,38.55c5.39,27.06-12.31,62.22-46.64,68.86-12.15,2.36-24.3,2.15-35.77-2.81-23.21-10.05-35.81-27.92-37.73-53.19-.29-3.81,0-7.67-.27-11.5a64,64,0,0,0-1.09-9.48c-1.61-7.73-6.73-12.56-14.44-13.16-4.41-.35-8.89.18-13.34.37-7.66.35-15.33,1.3-23,1-22.83-.88-42-15-48.83-36.78-10.82-34.51,10.1-62.6,36.42-69.8a91.29,91.29,0,0,1,24.59-3.43c13.43,0,26.84-.15,40.11-2.81C198.29,179.88,202.2,180.1,206,179.87Zm-61.34,80.26c14.3.4,21.83-12.12,21.66-21.7-.19-10.63-10.45-20.52-21.08-20.87-11.25-.38-21.31,10.16-21.19,22.2A20.32,20.32,0,0,0,144.69,260.13ZM275.76,323c-.06-13.12-10.94-20.5-20.46-20.84-11.49-.41-22.66,10.5-21.88,21.65.88,12.49,11,21.53,22.69,20.82C267.13,344,275.93,334.35,275.76,323Zm-86.33-91.33c-.6,11.31,9.49,20.87,19.78,21.26,13.93.53,22.14-10.74,22.51-20.75.41-10.88-9.07-20.73-20.08-21.24C199.27,210.35,189.59,219.38,189.43,231.66Z"/><path class="cls-1" d="M338.17,240c-31,1.11-50.91-27.21-50.65-46.91.42-31.37,24.29-52.14,49.84-52.2,28.07-.07,49.8,21.13,50,49.3C387.62,221.91,362.39,240.79,338.17,240Zm-.85-70.12a20.71,20.71,0,0,0-20.52,20.55c-.1,11.88,10.12,21.91,21.86,21.46,10.93-.42,20.51-10.07,20.74-20.91C359.65,179.31,349.59,169.69,337.32,169.91Z"/></svg>