<svg id="Livello_1" data-name="Livello 1" xmlns="http://www.w3.org/2000/svg" viewBox="0 0 447.87 447.87"><defs><style>.cls-1{fill:#fff;stroke:#000;stroke-miterlimit:10;stroke-width:2px;}</style></defs><title>fettaTavola disegno 40</title><path class="cls-1" d="M314.34,323.31c-1.24,30.82-18.93,51.71-41.64,60.27-37.93,14.3-77.58-11.55-83.79-46.91-.88-5-1.55-10.08-2.13-15.15-.44-3.8-.37-7.66-.87-11.45-1.14-8.52-6.18-13.87-14.33-16.06a61.29,61.29,0,0,0-11.32-1.62c-5.09-.4-10.25-.14-15.31-.72-21.86-2.53-38.65-12.86-48.18-33.12-16.11-34.28,4.13-72.32,37.52-80.42,9.39-2.27,18.81-3.83,28.45-2.17,13.28,2.29,26.7,2.7,40.1,2.89a86.52,86.52,0,0,1,22.62,3.71c14.08,4,25,12.52,32.81,24.9a44.69,44.69,0,0,1,7.07,19.63c.56,5.7,1.88,11.32,2.91,17a35.8,35.8,0,0,0,11,19.75c5.08,4.85,10.33,9.52,15.35,14.44a64.88,64.88,0,0,1,18.88,36.86C314,318.25,314.15,321.44,314.34,323.31ZM211.75,255.12A20.77,20.77,0,0,0,232.5,234.8c.26-12-9.72-22.72-21.17-22-10.56.62-21.29,7.94-20.58,22.46C191.31,246.79,200.1,255.22,211.75,255.12Zm-62.84-.1c11.16,0,20.87-9.11,21.15-20.24.36-14.59-11.64-22.14-21.21-22.34-10.49-.22-20.59,9.73-21.35,20.51C126.69,244.37,137,255,148.91,255ZM230,323.27c-.74,12.61,9,21.92,20.9,22A21.05,21.05,0,0,0,272,325.06c.42-11-8.48-22-21.16-21.94C239.8,303.13,229.8,312.47,230,323.27Z"/><path class="cls-1" d="M337.71,147.63c27.07.29,46.61,21.8,46.69,46.15.08,26.66-20.82,48.31-47.18,47.68-27.5-.66-47.5-22.66-47.16-46C290.45,168.63,311.62,147.58,337.71,147.63Zm21.07,46.57c-.15-11.14-9.43-20.79-20.49-20.88-13.16-.11-21.57,9.58-21.87,21.49-.26,10.73,9.8,20.82,20.6,21S359,207.14,358.78,194.2Z"/></svg>