<svg id="Livello_1" data-name="Livello 1" xmlns="http://www.w3.org/2000/svg" viewBox="0 0 447.87 447.87"><defs><style>.cls-1{fill:#fff;stroke:#000;stroke-miterlimit:10;stroke-width:2px;}</style></defs><title>fettaTavola disegno 35</title><path class="cls-1" d="M241.42,384.75c-22.06-.45-40.37-12-51.36-35-3.93-8.22-4.55-17.22-5.64-26.06-.54-4.43-.37-8.94-.77-13.39-1-10.77-7-17.65-17.06-20.81a204,204,0,0,0-20.46-5,67.17,67.17,0,0,1-17.91-6.55c-19.83-10.46-33.89-32-30.67-59.08,3.6-30.29,28.16-52,58.78-52.16A63.57,63.57,0,0,1,175.26,169c15.88,4.8,31.88,9.22,47.73,14.13a74.4,74.4,0,0,1,19.14,8.64c17.1,11.27,28.13,26.42,27.53,47.46-.5,17.13,5.4,31,16.45,43.52A70.12,70.12,0,0,1,301.93,313c4.06,16.69.48,31.82-8.64,45.63C281.94,375.83,265.53,384.47,241.42,384.75Zm23.73-58.07c.42-11.92-9.39-22.36-21-22.33-10.85,0-20.4,9.51-20.72,20.58-.37,12.5,8.75,22.12,20.87,22A20.72,20.72,0,0,0,265.15,326.68ZM176.59,225c-.32-11.17-9.67-20.51-20.65-20.62-11.63-.12-21.33,10.15-21,22.2a20.81,20.81,0,0,0,20.68,20.39C167.71,247,176.94,237.33,176.59,225Zm57.65,13.09c.48-14.41-12.63-22-21.67-21.31a21.68,21.68,0,0,0-20,21.37c-.14,11.28,9.72,21.7,22,21C226.17,258.4,234.31,250,234.24,238.05Z"/><path class="cls-1" d="M339.42,246.33c-20.34-.25-33.38-8.42-42.88-22.52a33,33,0,0,1-5.65-19.94c.54-15.48,5.84-28.81,18.46-38.25,15.2-11.38,31.88-12.71,48.67-4.21,15.51,7.85,23.15,21.27,23.89,38.67.84,19.55-11.14,37.92-30.37,43.91C346.73,245.49,341.6,245.93,339.42,246.33Zm-1.75-66a20.73,20.73,0,0,0-21.6,19.4c-.79,13.14,8.4,21.92,20.29,22.75,11.49.81,22.13-9.82,21.9-21.41A21.28,21.28,0,0,0,337.67,180.38Z"/></svg>