<svg id="Livello_1" data-name="Livello 1" xmlns="http://www.w3.org/2000/svg" viewBox="0 0 447.87 447.87"><defs><style>.cls-1{fill:#fff;stroke:#000;stroke-miterlimit:10;stroke-width:2px;}</style></defs><title>fettaTavola disegno 32</title><path class="cls-1" d="M273.37,236.82c-1.93,16.37,3.23,29.74,12.21,42.06,6,8.26,11.62,16.76,15,26.6,15.31,44.72-19,84.68-58.47,85.57-34.2.77-61.38-25.38-65.06-53.49-.83-6.34-1.79-12.61-1.5-19.05a141.88,141.88,0,0,0-.32-15.29c-.59-9.17-5.68-15.5-13.53-19.54a163.83,163.83,0,0,0-17.57-7.63A74.42,74.42,0,0,1,125.72,266c-28.36-21.09-28.37-64.34-4.46-86,10.29-9.32,22.26-14.76,36.34-15.11,9-.22,17.86.58,26.32,4.06,16.53,6.8,33.22,13.24,49.59,20.4,13.69,6,24.49,16,34.63,26.81A18.75,18.75,0,0,1,273.38,230C273.33,232.59,273.37,235.14,273.37,236.82Zm-113.66,5.5c11.88.09,22.11-10.17,21.47-21.95-.7-12.78-10.25-20.06-21-20.57-11.59-.54-22,10.35-21.6,22C138.91,232.61,148.82,242.23,159.71,242.32Zm76.15-.93c.58-12.75-9-21.7-21.09-22-10.82-.29-20.89,9.43-21.2,20.35-.27,9.72,7.22,22,21.42,21.93A20.81,20.81,0,0,0,235.86,241.39Zm3.9,64.54a21.44,21.44,0,0,0-20.88,20.51,21.18,21.18,0,0,0,21.73,21.67c10.18-.06,20-7.12,20.85-20.65C262.22,315.75,251.83,305.71,239.76,305.93Z"/><path class="cls-1" d="M335.73,257a54.57,54.57,0,0,1-27.36-8.1c-6.61-4-12.15-9.22-18-14.2-8.83-7.53-11-16.72-8.56-27.5s5.72-20.92,11.84-30.1c14-21.06,44.56-31.54,71-14.33,17.66,11.49,25.11,28.76,22.47,49.47s-14.74,35-34.54,41.92C347.3,256,341.37,256.11,335.73,257Zm1.28-30.3a21.25,21.25,0,1,0-21.74-21.65C314.76,216.84,325.15,227,337,226.71Z"/></svg>