<svg id="Livello_1" data-name="Livello 1" xmlns="http://www.w3.org/2000/svg" viewBox="0 0 447.87 447.87"><defs><style>.cls-1{fill:#fff;stroke:#000;stroke-miterlimit:10;stroke-width:2px;}</style></defs><title>fettaTavola disegno 33</title><path class="cls-1" d="M100,221.32c-1.15-19.91,14.83-48,42.54-55.23,10.78-2.81,21.33-3.78,32.12-.71,6.14,1.75,12.34,3.26,18.43,5.15,8.54,2.64,17,5.65,25.5,8.29a118.83,118.83,0,0,1,39,20c1.5,1.19,3,2.36,4.59,3.47,12.09,8.6,15.27,7.77,21.36-5.6,2.12-4.65,3.83-9.51,6.25-14,7.95-14.78,19.59-25,36.39-28.67,24.58-5.41,51,7.91,58.67,31.74,13.05,40.46-15.88,70.75-50.2,69.35a57.93,57.93,0,0,1-28.85-9.29c-5.4-3.39-10.81-6.8-16.36-9.94-4.18-2.36-8.92.19-10.39,5.05a39.75,39.75,0,0,0,3.4,31.5c3.65,6.73,7.9,13.14,11.83,19.72a66.22,66.22,0,0,1,9.46,28.88c3.34,40.83-29.76,67.22-60.24,67.68-24.74.38-50.82-14.26-60.36-41.83-1.65-4.76-2.22-9.93-2.89-15-1.09-8.23-1.62-16.54-2.81-24.75s-5.73-14.19-12.81-18.13a112.19,112.19,0,0,0-12.23-5.38c-5.91-2.43-12-4.42-17.77-7.18-15-7.25-25.8-18.57-31.36-34.51a39,39,0,0,1-2.27-7.3C100.45,230.27,100.35,225.78,100,221.32Zm58.66,22.42c11.82.11,22.4-10.27,21.73-21.76-.64-10.79-8.56-20.28-21.12-20.44a20.8,20.8,0,0,0-21.53,21.72A21.3,21.3,0,0,0,158.7,243.74Zm83.54,103.69c11.67-.16,20.25-8.69,20.46-20.34.23-12.25-9.32-22.35-21.08-21.92-10.11.38-21.27,8.45-20.6,22.55A20.6,20.6,0,0,0,242.24,347.43Zm-6.69-108.67c-.3-11.68-9.35-20.27-21.13-20.07A20.71,20.71,0,0,0,194,239.63c0,11.61,8.57,21.91,22.25,20.9C230.36,259.49,236,249.33,235.55,238.76Zm101.87-13.65A20.59,20.59,0,0,0,358,204.3c0-11.93-8.46-20.47-20.31-20.84C324.3,183,315.8,193,316.06,205,316.32,216.54,325.79,225.2,337.42,225.11Z"/></svg>