<svg id="Livello_1" data-name="Livello 1" xmlns="http://www.w3.org/2000/svg" viewBox="0 0 447.87 447.87"><defs><style>.cls-1{fill:#fff;stroke:#000;stroke-miterlimit:10;stroke-width:2px;}</style></defs><title>fettaTavola disegno 49</title><path class="cls-1" d="M321.12,317.24c-.18,29.54-17,54.28-46.76,60.51-24.39,5.1-53.28-6.15-65.12-35.42-2.82-7-3.46-14.87-5-22.35-.91-4.36-1.24-8.88-2.55-13.11a15.39,15.39,0,0,0-18.09-10.58,224.39,224.39,0,0,0-23.88,7c-8.66,3.08-17.47,3.74-26.45,3.22-24.47-1.41-46.84-20.2-51.51-44.34C76,232.72,89.4,208.84,113.93,197A92.63,92.63,0,0,1,132,190.86,193,193,0,0,0,173.4,176a102,102,0,0,1,19.69-7.36c20.14-5.42,37.88-.59,54,11.85,2.53,1.94,4.8,4.21,7.14,6.39a47.53,47.53,0,0,1,15.71,35.78c0,3.84-.32,7.68-.12,11.51.23,4.45.77,8.9,1.36,13.32A18.16,18.16,0,0,0,277.52,259c3.36,2.93,7,5.49,10.57,8.23,5,3.91,10.39,7.49,15,11.84A57.51,57.51,0,0,1,321.12,317.24ZM209.28,205.71c-12.17-.33-22.18,9.33-21.94,21.18a21.31,21.31,0,0,0,42.61-.57C229.86,215.23,220.61,206,209.28,205.71ZM262.2,342a21.58,21.58,0,0,0,22-19.41c1-11.75-8.36-22.72-20.37-23S242,308.16,241.73,321C241.53,331,250,341.59,262.2,342ZM137.85,228.61c-12.1.07-20.16,8.08-20.62,20a20.6,20.6,0,0,0,21,21.88c12.06-.07,21.2-10,20.78-22.23C158.61,237.78,149.77,227.88,137.85,228.61Z"/><path class="cls-1" d="M287.5,184.07a52.35,52.35,0,0,1,6.59-25.66c9.86-17.7,25.33-27.08,45.23-26.84s35.67,9.71,44.49,28c16.89,34.9-8,74.47-47.29,72.95-20.59-.8-35.8-11.95-46-29.78a20.51,20.51,0,0,1-2.2-7.21C287.82,191.71,287.76,187.88,287.5,184.07Zm30.2-1.84c0,11.19,9.26,20.84,20.27,21.26,11.78.45,22-9.75,22.3-21.5.31-10.72-9.77-20.66-20.63-21.18S317.29,169.45,317.7,182.23Z"/></svg>