<svg id="Livello_1" data-name="Livello 1" xmlns="http://www.w3.org/2000/svg" viewBox="0 0 447.87 447.87"><defs><style>.cls-1{fill:#fff;stroke:#000;stroke-miterlimit:10;stroke-width:2px;}</style></defs><title>fettaTavola disegno 48</title><path class="cls-1" d="M320.11,318c.82,35.81-23.65,60.17-55,62.84-21.86,1.86-49.26-10.47-59.58-39.31A68,68,0,0,1,201.22,321a66.17,66.17,0,0,0-1.39-13.29c-2.21-9.12-8.28-12.88-16.86-12.35-6.28.39-12.47,2.45-18.67,3.9-5.59,1.3-11.06,3.42-16.71,4.09-22,2.6-40.64-4.25-53.86-22.24-21.77-29.6-9.69-66,16.4-81.5a61.26,61.26,0,0,1,19.51-7.69,259.35,259.35,0,0,0,52.82-16.58c10.75-4.62,22.16-5.79,33.81-4.36,21.42,2.64,36.25,14.84,46.54,33,3.8,6.68,4.6,14.54,4.94,22.24.23,5.1.24,10.21.5,15.31.41,8.16,4.12,14.64,10.57,19.53,3.05,2.31,6.29,4.36,9.39,6.6,3.63,2.61,7.38,5.08,10.76,8C312.81,287.46,320.21,302.43,320.11,318ZM209.22,248.76A20.72,20.72,0,0,0,229.55,228c.1-12-10.06-22.32-21.6-21.62-9.66.59-21.14,8.28-20.26,22.9A20.7,20.7,0,0,0,209.22,248.76Zm72.94,73.05c.17-11.72-8.2-20.67-19.63-21.22-14.57-.7-22.18,11-22.42,20.66-.29,11.82,10.08,22,21.85,21.35C273.48,341.94,282.33,333.55,282.16,321.81ZM159.71,248.3a20.49,20.49,0,0,0-20-21.27c-12-.44-21,7.81-21.7,19.37-.84,14,9.69,22.32,20.75,22.22C150.52,268.51,159.5,259.91,159.71,248.3Z"/><path class="cls-1" d="M339.16,133.09c22.6-1.3,49.56,18,50,49.55.37,26.53-17,48.12-45.71,52.29-7.73,1.12-15.21-.47-22.5-3.07-12.49-4.43-22-12.58-29.13-23.58a34.81,34.81,0,0,1-5.47-16.14c-1.58-18.6,6.46-44,30.55-54.8C324.47,134,328.74,133,339.16,133.09Zm20.13,50.48A20.9,20.9,0,0,0,339,162.76c-10.47-.37-21.64,7.22-21.52,21.39.12,13.44,10.64,20.3,20.19,21.15C348.68,206.28,359.35,195.37,359.29,183.57Z"/></svg>