<svg id="Livello_1" data-name="Livello 1" xmlns="http://www.w3.org/2000/svg" viewBox="0 0 447.87 447.87"><defs><style>.cls-1{fill:#fff;stroke:#000;stroke-miterlimit:10;stroke-width:2px;}</style></defs><title>fettaTavola disegno 10</title><path class="cls-1" d="M154.21,333.42c.31-10.19.69-17.81,3.15-25.24a135.2,135.2,0,0,0,4.31-16.71c3.67-18.92,1.4-36.93-9-53.53-3.73-6-7.75-11.76-11.24-17.86a67.34,67.34,0,0,1-9.32-34.75c.33-30.4,26-57.53,57.65-57.71,26.26-.15,47,12.9,57.13,37.33,2.45,5.88,4.08,12.1,6.16,18.14a152.15,152.15,0,0,0,5.24,14.38,32,32,0,0,0,5.55,7.71,13.54,13.54,0,0,0,17.43,2.43c3.19-2.12,6.13-4.61,9.17-7,4-3.13,7.84-6.64,12.15-9.36,31-19.58,68.67-4.14,79.24,26.19,10.17,29.19-4.32,60.88-35.88,69.72-10.49,2.93-21.57,2.36-32.23-1-5.49-1.72-10.92-3.68-16.52-4.94-7.57-1.69-14.06.72-18.43,7.19a50.33,50.33,0,0,0-5.93,11.93A73.16,73.16,0,0,0,269,323a98.87,98.87,0,0,1-3.24,22.73c-5,20.32-17.4,34.68-37.07,40.56-32.84,9.82-62.73-5.75-72.79-38.29C154.24,342.65,154.55,336.66,154.21,333.42Zm156.87-99.81c-1.19,13.52,8.05,22.25,19.55,23.64,11,1.32,22.59-9.28,22.71-20.88.12-10.69-8.56-20.14-18.06-21.29C320.67,213.31,311.67,224,311.08,233.61Zm-79.26,98.05c-.48-11-10.29-20.4-21.27-20.22-13.48.22-22.05,11.69-21.18,22.18,1.11,13.2,10.68,20.36,21.25,20.25A21.18,21.18,0,0,0,231.82,331.66Zm-19-143a21.48,21.48,0,0,0-20.31-23c-11.22-.44-20.69,7.87-22.06,19.36-1.32,11,8.75,22.55,20.34,23.22C199.18,208.77,211.73,201.5,212.8,188.68Zm9.9,49.1c-10.84,0-20.43,8.08-20.66,20.8-.22,12.51,9.75,21.63,22.35,21,11.63-.6,19.93-9.79,19.6-21.7A20.55,20.55,0,0,0,222.7,237.78Z"/></svg>