<svg id="Livello_1" data-name="Livello 1" xmlns="http://www.w3.org/2000/svg" viewBox="0 0 447.87 447.87"><defs><style>.cls-1{fill:#fff;stroke:#000;stroke-miterlimit:10;stroke-width:2px;}</style></defs><title>fettaTavola disegno 29</title><path class="cls-1" d="M385.09,209.46c.94,22.66-15.47,47.73-47.86,49.71-9.74.6-18.88-2.7-27.5-7.16-6.22-3.22-12.33-6.68-18.6-9.8-3.19-1.58-8.24.59-9.81,3.84-.56,1.14-1.14,2.28-1.59,3.47a38.73,38.73,0,0,0-.73,26.3,160.84,160.84,0,0,0,7.11,17.74,129.12,129.12,0,0,1,7.81,21.56c6,22-4.89,55.88-36.76,68-36.64,13.88-76.89-11.67-79.55-50.36-.52-7.64-1-15.29-1.59-22.93-1-12.5-7.18-21.58-18.14-27.47-5.06-2.72-10.23-5.22-15.3-7.92a95,95,0,0,1-20.44-14.11c-28.6-26.67-25.76-82.57,20.77-100.88,14.71-5.79,30.08-5,45,.46a69.9,69.9,0,0,1,12.17,5.61c20.25,12.13,41.82,22.08,60.51,36.8a62.54,62.54,0,0,0,9.83,5.86c3.41,1.79,8.37.67,10.33-2.4,2.74-4.29,5.38-8.67,7.72-13.19A71.65,71.65,0,0,1,301.82,174c22-21.56,66.05-17.61,79.88,16.79C384.15,196.87,384.86,203.07,385.09,209.46ZM195.5,243.28c.21,11.13,9.48,20.79,20.34,21.19,11.3.42,22.24-10.34,21.71-21.84-.63-13.56-11.46-21.42-22.38-21C206.5,222,194.93,230.54,195.5,243.28Zm-9.84-26.39c.31-10.88-9-21.16-19.81-21.87A21.82,21.82,0,0,0,143,215.78c-.4,11.67,10,22.13,21.72,21.93C175.62,237.54,185.35,227.85,185.66,216.89Zm29.52,110c-.47,11.95,9.36,22.34,21.12,22.33,10.66,0,20.46-9.4,21.36-20.44.92-11.23-9.62-22.18-21.35-22.19A21.41,21.41,0,0,0,215.18,326.93Zm120.14-96.21c11.58.95,22.08-8.65,22-21.26-.1-10.74-7.57-20-20.42-21.32-11.13-1.14-21.77,9.87-22,21.64C314.73,220.32,324.75,231.21,335.32,230.72Z"/></svg>