<svg id="Livello_1" data-name="Livello 1" xmlns="http://www.w3.org/2000/svg" viewBox="0 0 447.87 447.87"><defs><style>.cls-1{fill:#fff;stroke:#000;stroke-miterlimit:10;stroke-width:2px;}</style></defs><title>fettaTavola disegno 23</title><path class="cls-1" d="M153.79,326.68c.65-4.06,1.48-10.37,2.69-16.61,1.09-5.65,2.75-11.19,3.87-16.83a27.26,27.26,0,0,0-7-24.87,152.5,152.5,0,0,0-12.65-11.7c-5.83-5-11.37-10.3-15.77-16.67-19-27.5-11.34-67.53,20.18-84.32,19.6-10.43,39.31-9.63,58.52,1.48,9,5.21,16,12.65,22.67,20.48a282.58,282.58,0,0,0,30.89,31.48,107.69,107.69,0,0,0,10.7,8.06,8.62,8.62,0,0,0,11.76-2.88c2.84-5,5.5-10.11,8.09-15.24a60,60,0,0,1,15.16-19.57c28.64-23.68,72-9.08,80.75,26.76,4.61,18.95-3.8,48.95-31.78,58.44a54.23,54.23,0,0,1-35.79-.28c-6-2.07-11.61-5.29-17.44-7.86-2.91-1.28-5.92-2.33-8.92-3.37-1.81-.62-5.34,1.85-6,3.79A17.7,17.7,0,0,0,284,268.3c2.53,7.23,5.26,14.42,8.44,21.38a116.2,116.2,0,0,1,8.18,23.51c9.81,45.23-22.52,82.3-58.68,89-34.78,6.42-78-13.43-87.2-61.68C154,336.75,154.18,332.84,153.79,326.68ZM333.8,197c-11.06-.51-20.49,11.28-20.14,21,.43,11.87,10.7,21.61,22.49,20.86,11.22-.72,20.3-10.21,20.1-21.32C356.07,207.54,347.85,196,333.8,197ZM249.47,329.78a20.87,20.87,0,0,0-19.89-21.27c-12.24-.51-22.54,8.79-22.74,20.54-.18,10.71,9,20.59,20.11,21.65S249.14,341.58,249.47,329.78ZM194,206.94c0-12.19-9.74-21.44-21.87-21.27-9.17.12-20.38,9.31-20.25,21.08A21.35,21.35,0,0,0,173.82,228C185.21,227.79,194,218.19,194,206.94Zm25.14,61.52c11.72.13,20.37-9,21.09-20.09.76-11.64-9.33-21.74-21.45-21.71A20.75,20.75,0,0,0,198,248.73C198.37,259.63,208.14,269,219.13,268.46Z"/></svg>