<svg id="Livello_1" data-name="Livello 1" xmlns="http://www.w3.org/2000/svg" viewBox="0 0 447.87 447.87"><defs><style>.cls-1{fill:#fff;stroke:#000;stroke-miterlimit:10;stroke-width:2px;}</style></defs><title>fettaTavola disegno 28</title><path class="cls-1" d="M166.38,157c9.88-.33,19,2.23,27.81,6.38a53.62,53.62,0,0,1,5.19,2.47c19.59,12,40.51,21.8,59.06,35.54,2.56,1.9,5.22,3.69,7.95,5.34,6.87,4.14,12.35,3,16.38-3.4,2-3.24,3.66-6.73,5.65-10,2.65-4.36,5.11-8.9,8.3-12.85,16.87-21,47.47-24.91,68.86-9.46,15.55,11.23,24.46,35.64,18.08,54.59-7.89,23.43-29.41,35.42-47.53,35a61.7,61.7,0,0,1-27.44-7.42c-5.64-2.94-11.24-6-17-8.63-3.91-1.77-9.61,1-11.13,5-3.21,8.46-4.89,17-3,26.19,1.82,8.91,5.66,16.95,9.17,25.14a68.82,68.82,0,0,1,5,33.73c-2,22.64-14.36,38.19-34.64,46.66-30.82,12.87-62.07-2.72-74.16-29.06a61.17,61.17,0,0,1-5.72-24.08c-.15-5.75-.19-11.5-.33-17.25-.32-13.07-6-23.35-16.67-30.72-5.25-3.62-10.79-6.83-16.28-10.09-6.61-3.92-13-8.13-18.4-13.67-12.18-12.52-18.39-27.39-17.56-45,1.14-24.22,19.69-47.07,43.24-52.74C156.1,157.43,161.31,157.49,166.38,157Zm51.1,107.88a21.4,21.4,0,0,0,20.79-20.69c.23-11.73-10.17-22.29-21.68-22-10.62.27-20.76,10.2-20.86,21C195.62,254.37,204.8,265.37,217.48,264.86Zm118.79-33c11.66-.08,20.53-8.55,21-20.05a21.11,21.11,0,0,0-21.4-21.72,21.7,21.7,0,0,0-21.19,20.26C314,221.89,324.11,231.92,336.27,231.84ZM213.88,328A21.79,21.79,0,0,0,234,349.44c11.64.67,22.61-9.31,22.42-21.08-.19-11.93-9.12-21.63-22-21.41C223.16,307.15,214,316.86,213.88,328Zm-48.45-92.17c12,.24,22.3-9.79,22-21.35-.29-11-9.72-20-20.89-20.45a20.78,20.78,0,0,0-21.71,21.24C145.3,226.6,154,235.55,165.43,235.79Z"/></svg>