<svg id="Livello_1" data-name="Livello 1" xmlns="http://www.w3.org/2000/svg" viewBox="0 0 447.87 447.87"><defs><style>.cls-1{fill:#fff;stroke:#000;stroke-miterlimit:10;stroke-width:2px;}</style></defs><title>fettaTavola disegno 42</title><path class="cls-1" d="M179.14,181.73c5.84-.36,11.58-.68,17.32-1.08,8.37-.59,16.56.57,24.74,2.28,22.8,4.78,39.08,24.48,40.75,43.15.52,5.72,2.05,11.34,2.68,17,.9,8.17,5.11,14.35,11.12,19.46,3.89,3.31,8.25,6.08,12.07,9.46,4.78,4.22,9.86,8.32,13.68,13.34,15.77,20.72,18.45,43.34,6.49,66.53s-32.22,34.2-58.16,33c-22.46-1-44.55-14.24-54.55-41.67a42.63,42.63,0,0,1-1.9-9.35c-.6-5.08-1-10.18-1.31-15.29-1.33-21.29-5.6-27.34-28.26-25.75a150.5,150.5,0,0,1-17.24.51,75.23,75.23,0,0,1-15.1-2.17c-23.9-6-41.19-28.19-41-53.83.16-24.6,15-46.34,41.17-53.82a79,79,0,0,1,28.46-3.12C166.45,181,172.84,181.31,179.14,181.73Zm-33.42,34.78c-11.73.15-20.2,9.67-20.64,20.77-.44,11.34,10.72,22.21,21.94,21.79,11.67-.45,20.39-10.73,20.27-23.1C167.19,226,157.47,215.71,145.72,216.51ZM274.56,323.28c.34-10.74-8.38-20.21-20.49-20.6-11.76-.39-22.52,10.21-21.87,21.57A22.07,22.07,0,0,0,255,345C263.52,344.62,275.6,335.8,274.56,323.28ZM210,253.48c12.75.28,22.09-8.49,22.1-20.76a21.21,21.21,0,0,0-42.42,0A20.55,20.55,0,0,0,210,253.48Z"/><path class="cls-1" d="M336.85,240.4c-20.32-.38-35.66-10.3-44.27-29.65-11.44-25.72,4.68-61.27,35.91-66.17,9.63-1.51,19.11-1.15,28.3,2.48,23.07,9.09,32.75,33.49,29.28,52.68-3.22,17.79-12.87,30.18-29.46,37.33C350.58,239.67,344.27,240.16,336.85,240.4Zm22.31-48.19a21.58,21.58,0,0,0-20-21.39c-9.95-.61-21.67,6.65-22.22,21.09-.46,11.78,10.13,21.88,21.91,21.44C349.86,213,359.08,203.34,359.16,192.21Z"/></svg>