<svg id="Livello_1" data-name="Livello 1" xmlns="http://www.w3.org/2000/svg" viewBox="0 0 447.87 447.87"><defs><style>.cls-1{fill:#fff;stroke:#000;stroke-miterlimit:10;stroke-width:2px;}</style></defs><title>fettaTavola disegno 22</title><path class="cls-1" d="M170,148.35c19.56-.61,33,4.71,44.13,15.28A201,201,0,0,1,232,183.69a232,232,0,0,0,29.13,30.49c2.86,2.47,6.29,4.31,9.54,6.3,1.71,1,5.82.06,7.07-1.59a48.21,48.21,0,0,0,4.31-6.28c3-5.65,5.44-11.61,8.7-17.09,8.29-13.94,20.27-22.58,36.56-25.35,11.29-1.92,21.66.36,31.52,5.4,19.68,10.05,28.52,32.89,25.73,49.72-4,23.87-18.9,37.17-37.1,42a49.86,49.86,0,0,1-24.63.6A150.67,150.67,0,0,1,301,260.62a48,48,0,0,0-7.35-2c-2-.45-5.6,2.37-5.34,4.41.56,4.39.82,8.94,2.23,13.08,2.66,7.87,6.18,15.43,9.1,23.22a80.29,80.29,0,0,1,5.5,31.91c-1.37,31.67-16.27,54.95-44.39,68.8-47.6,23.43-96.78-7.55-108.33-47.41-4-13.86-5.13-27.59-1.33-41.59,1.35-4.94,2.92-9.82,4-14.82a103.8,103.8,0,0,0,2.32-15.13,23.24,23.24,0,0,0-6.21-17.65c-4.77-5.17-10-9.95-14.9-14.94C129,241.16,123,233,120,222.86c-9.32-31.45,6.81-63.37,38.91-72.73A61,61,0,0,1,170,148.35Zm49.75,79.25c-13.89-.43-22.18,12-21.72,21.52.53,11,10.1,20.39,21.07,20.53,11.83.14,21.93-10,21.66-21.79C240.55,236.83,231.05,227.67,219.79,227.6Zm136.26-8.37c0-11.94-10.32-22-22-21.43a22.25,22.25,0,0,0-20.59,21.29c-.49,11.41,10.77,21.82,22.34,21.3A21.27,21.27,0,0,0,356.05,219.23ZM226.7,308.65c-11.08.19-20.76,9.58-21.11,20.48-.36,11.08,10.83,22.36,21.88,22,11.71-.34,21-10.83,20.84-22.83C248.19,319.66,239.36,307.93,226.7,308.65Zm-52.81-82.58c12.17.85,21-8.91,21.52-19.21.68-13.56-8.86-22.24-20.17-22.81-10.13-.51-21.66,7.33-21.71,21.45C153.5,216.11,162,226.31,173.89,226.07Z"/></svg>