<svg id="Livello_1" data-name="Livello 1" xmlns="http://www.w3.org/2000/svg" viewBox="0 0 447.87 447.87"><defs><style>.cls-1{fill:#fff;stroke:#000;stroke-miterlimit:10;stroke-width:2px;}</style></defs><title>fettaTavola disegno 3</title><path class="cls-1" d="M139.94,337c.06-12.88,1.55-22.89,5.53-32.54a221.55,221.55,0,0,0,12.68-40.16,175.39,175.39,0,0,0,3.28-28.53c.34-8.35-.76-16.56-4.52-24.28-1.94-4-3.14-8.38-4.89-12.49-3.86-9.08-4.56-18.55-3.92-28.23,1.72-26.28,25.59-46.7,49.13-47.94,27.94-1.48,51.11,15.91,57.1,43.57,1.76,8.12,3,16.36,4.39,24.55.79,4.56,3.1,8.37,5.91,11.88a17.33,17.33,0,0,0,19,5.63,100.78,100.78,0,0,0,13.93-6.31,101.1,101.1,0,0,1,17.59-7.52c29.44-9.2,65.23,11.39,67.41,46.58,1.24,20.08-5.65,36.35-22.11,48.2a48.42,48.42,0,0,1-26.78,9.34,88.23,88.23,0,0,1-24.78-2.12c-13.63-3.34-23.67,2.11-31.45,12.91a82,82,0,0,0-11.58,24.08c-2.28,7.32-4.56,14.67-7.44,21.77-7.37,18.15-20,31.18-38.93,37.1-33.1,10.37-67-7.13-77.61-41C140.21,346.14,140.34,340.17,139.94,337Zm61.15-23.6c-12-.11-22.51,10.14-21.93,21.36.56,11,10.14,20.3,21.08,20.54,12.19.27,21.66-9.24,21.49-21.58A20.41,20.41,0,0,0,201.09,313.39ZM330.36,266.7a21.34,21.34,0,0,0,20.94-20.4c.58-11.45-9.71-21.53-21.85-21.39a20.86,20.86,0,0,0-20.7,20.42C308.52,257.53,318,266.92,330.36,266.7ZM224.77,244c-11.9.09-20.41,8.62-20.53,20.61-.12,12.23,8,20.57,20,21,13.54.52,22.09-10.08,21.73-21.42A20.6,20.6,0,0,0,224.77,244Zm-23.29-88.45c-11.57-.59-20.76,8.38-21.27,20.09a20.87,20.87,0,0,0,19.95,21.48c13.47.53,22.4-10,22.06-21.12C221.85,164.1,213.49,155.64,201.48,155.53Z"/></svg>