<svg id="Livello_1" data-name="Livello 1" xmlns="http://www.w3.org/2000/svg" viewBox="0 0 447.87 447.87"><defs><style>.cls-1{fill:#fff;stroke:#000;stroke-miterlimit:10;stroke-width:2px;}</style></defs><title>fettaTavola disegno 37</title><path class="cls-1" d="M159.58,174.1c20.88,2.19,41.9,3.82,62.54,8,15,3,27,11.1,36.39,23.12a46.67,46.67,0,0,1,10.17,26.36c.25,3.82.4,7.66.29,11.48-.41,13.52,4.42,24.89,13.56,34.69a139.37,139.37,0,0,1,9.81,11.75,58.34,58.34,0,0,1,11.9,39.44c-1.45,26.9-21.36,48.66-49.12,53.31-25.35,4.25-52-11.09-61.53-35.46a59.26,59.26,0,0,1-4.33-20.5,125.36,125.36,0,0,0-1-15.27c-2-13.72-7.75-19.69-21.94-22.89-6.84-1.54-13.76-2.74-20.68-3.93A62.32,62.32,0,0,1,126,276.93C102.54,264,95,237,99,218.35c6.19-28.73,29.6-42.77,49.07-44.21C151.9,173.86,155.75,174.1,159.58,174.1Zm14.61,54.05a21.25,21.25,0,0,0-21.08-20.31c-11.8.1-22.41,11-21.6,22.1.78,10.63,11.06,20.46,21.5,20.55C161.84,250.56,175.25,242.18,174.19,228.15ZM191.76,237C192,248,201.33,257.61,212.3,258c11.27.45,22-10.3,21.82-21.86-.19-11.94-10.38-21.11-22.62-20.76C202,215.69,191,225.18,191.76,237Zm75.93,88.91c.23-12.41-9-22.14-21-22.07-10.89.06-20.48,9.57-20.78,20.61-.31,12.08,9.41,22.16,21.22,22A20.78,20.78,0,0,0,267.69,325.89Z"/><path class="cls-1" d="M335.37,243.45c-16.71-.25-29.28-8.16-38.17-21.76-5.34-8.17-7.69-17.37-5.61-27.37,1.7-8.19,3.8-16.11,9.09-22.86,11.78-15,27.28-20.59,45.73-17.08,17.86,3.39,28.9,14.39,34.64,31.8,6.23,18.92-4.12,44.7-23.37,53.15A48.07,48.07,0,0,1,335.37,243.45Zm2.86-23.64a21.6,21.6,0,0,0,20.4-21.17c0-11.7-10.67-22.08-22.16-21.45a21.45,21.45,0,0,0-20.34,21.32A21.06,21.06,0,0,0,338.23,219.81Z"/></svg>