<svg id="Livello_1" data-name="Livello 1" xmlns="http://www.w3.org/2000/svg" viewBox="0 0 447.87 447.87"><defs><style>.cls-1{fill:#fff;stroke:#000;stroke-miterlimit:10;stroke-width:2px;}</style></defs><title>fettaTavola disegno 39</title><path class="cls-1" d="M164.89,178c16.65,1.4,32.59,2.66,48.51,4.12a58.17,58.17,0,0,1,23.65,7.28c14.06,8,23.29,19.7,27,35.55,1,4.36,2.05,8.73,2.81,13.14,1.83,10.54,7.08,19,15,26.08,4.77,4.26,9.54,8.54,14,13.12,16.9,17.4,22.45,38.17,17.93,61.82-4.69,24.51-26.76,45.54-50.29,49.65-27.8,4.85-50.49-3.51-67.48-26.24a59.11,59.11,0,0,1-11.75-32c-.34-5.1-.12-10.25-.62-15.33a94.87,94.87,0,0,0-2.41-13.14,14.89,14.89,0,0,0-10-10.84,53.35,53.35,0,0,0-13-2.87,119.36,119.36,0,0,1-22.63-4c-20.91-5.84-36.62-24-39.07-45.18-3-26,11.72-46.22,28-54.61,7.54-3.89,15.31-6.43,23.79-6.57C154.08,177.93,159.84,178,164.89,178Zm63.87,146.67c.17,11.43,9.06,20.76,20.19,21,10.37.2,21.86-6.67,21.75-21.34a20.68,20.68,0,0,0-22.1-21A21.23,21.23,0,0,0,228.76,324.68ZM212.52,214c-12.39-.19-21.72,9.12-21.51,21.46a20.73,20.73,0,0,0,20.78,20.31c12,.12,22.41-10.13,21.88-21.46A21.75,21.75,0,0,0,212.52,214Zm-61.58-2.92a21.29,21.29,0,0,0-21.52,19.78,21.06,21.06,0,0,0,20.66,22.53c11.61.26,22.3-10.35,21.84-21.68C171.48,220.72,161.89,211.29,150.94,211.08Z"/><path class="cls-1" d="M291.21,196.06c-.26-22.91,17.2-47.11,47.87-46.29,28.5.77,45.33,23.21,44.87,47.17-.54,27.93-23.79,45.61-46.91,45.5C314.34,242.34,289.56,222.63,291.21,196.06ZM337,216.91c12.18.31,22.15-9.21,21.7-21.27-.53-13.83-9.91-20.36-20.29-20.82-10.66-.47-21.72,7.23-21.54,21.31C317.05,207.71,325.58,216.62,337,216.91Z"/></svg>