<svg id="Livello_1" data-name="Livello 1" xmlns="http://www.w3.org/2000/svg" viewBox="0 0 447.87 447.87"><defs><style>.cls-1{fill:#fff;stroke:#000;stroke-miterlimit:10;stroke-width:2px;}</style></defs><title>fettaTavola disegno 25</title><path class="cls-1" d="M162,315.56c.29-5.1.67-10.2.86-15.31a35.62,35.62,0,0,0-12.18-29c-4.27-3.86-8.67-7.56-13.05-11.29-6.36-5.41-12.28-11.26-16.65-18.42-20.61-33.7-3.85-72.7,26.63-85.25,15-6.19,29.75-6.16,44.73-.39,8.43,3.25,15.84,8.19,23.15,13.4q20.28,14.49,40.8,28.63a64.44,64.44,0,0,0,9.95,5.69c6.39,2.92,12.84,1.36,17.26-4.08,3.22-4,6.1-8.2,9.2-12.26A56.42,56.42,0,0,1,306.41,174c17.61-11.53,36.12-12.77,54.35-2.38s27,27.24,25.15,48.13c-2.43,27.06-23.36,43.66-44.53,45.28a66.22,66.22,0,0,1-26.46-3.13c-5.44-1.83-10.82-3.86-16.35-5.36-6.07-1.66-11.44,2.63-12.05,9a39.35,39.35,0,0,0,1.85,17c2.12,6,4.4,12,6.64,18,4.57,12.19,5.57,24.69,4.66,37.68-1.81,25.89-25.75,58-64.48,60.12-43.47,2.37-73.62-33.14-73.59-69.28V315.56Zm48.16,12.92a21.21,21.21,0,0,0,19.59,21.64c14.58.89,22.51-11.59,22.92-20.54.53-11.35-10.14-21.89-21.83-21.67A20.87,20.87,0,0,0,210.16,328.48ZM356.88,215.83c.37-9.84-8-21.2-19.77-21.45-12.58-.27-22.57,8.35-22.85,20.29-.26,10.94,8.48,20.56,19.8,21.79S356.34,227.65,356.88,215.83ZM170.15,231c12.07,0,22.54-10.23,21.52-21.71-1.14-12.86-10.62-20.06-21.14-20.67-11.31-.66-21.75,10.56-21.4,22.18A21,21,0,0,0,170.15,231Zm48.66-5.79c-11.85-.19-20.67,8.31-21.13,20.06C197.09,260,208.49,267.33,219,267.2c11.52-.15,20.34-9.54,20.35-21.13A20.57,20.57,0,0,0,218.81,225.19Z"/></svg>