<svg id="Livello_1" data-name="Livello 1" xmlns="http://www.w3.org/2000/svg" viewBox="0 0 447.87 447.87"><defs><style>.cls-1{fill:#fff;stroke:#000;stroke-miterlimit:10;stroke-width:2px;}</style></defs><title>fettaTavola disegno 6</title><path class="cls-1" d="M333.21,295.53c-9.39-.21-17-.59-24.47-2.89-4.22-1.3-8.76-1.68-13.19-2.15a16.93,16.93,0,0,0-13.95,5.16,50.17,50.17,0,0,0-8.16,10.54,71.5,71.5,0,0,0-7.78,21.54c-1.62,8.12-4,16.11-6.4,24.06-6.25,20.65-28.32,41.46-59.64,38.55a56.64,56.64,0,0,1-51.09-51.41c-.7-9-.22-17.87,2.88-26.52,1.94-5.41,3.2-11.06,5.05-16.5,5.27-15.45,5.92-31.28,4.62-47.38a49.27,49.27,0,0,0-5-18.37c-3.16-6.28-6.49-12.48-9.67-18.76a77.09,77.09,0,0,1-6.57-19.93c-5.46-27.09,9.33-57.38,39.28-66.35,30.84-9.23,60,3.55,72.72,33.56,3.5,8.3,5.12,17.12,6.78,25.92a61.32,61.32,0,0,0,3.6,12.84c4.61,10.68,13.54,13.71,23.44,8.1,5-2.83,9.77-6.09,14.6-9.21,11.81-7.65,24.76-9.79,38.57-8.34,25.21,2.64,44.44,24.47,46.66,48.66,2.18,23.64-11.84,46.71-33.39,55.2a35.69,35.69,0,0,1-7.22,2.49C340.46,295.05,336,295.26,333.21,295.53Zm-3.06-32.91c12.28.39,22.07-8.9,22.1-21,0-11.43-8.68-20.33-20.25-20.7-12.41-.4-22.47,8.87-22.2,20.76C310,250.6,316.32,262.1,330.15,262.62Zm-126.54-1.06c-.37,12.12,9.19,22.31,20.94,22.31,10.72,0,20.42-9.65,20.8-20.69a20.88,20.88,0,0,0-21.07-22C212.73,241.31,204,249.93,203.61,261.56Zm14.78-81.16c-.13-11.46-9-20.09-20.49-20.42-11.74-.34-21.69,8.44-21.31,21.44.36,12.05,8.26,20,20.44,20.61A20.7,20.7,0,0,0,218.39,180.4Zm7.83,153.7c.18-11.82-8.38-20.92-20-21.29-12-.38-21.93,7.65-21.78,21.32a20.35,20.35,0,0,0,20.85,20.38C217,354.37,226.05,345.73,226.22,334.1Z"/></svg>