<svg id="Livello_1" data-name="Livello 1" xmlns="http://www.w3.org/2000/svg" viewBox="0 0 447.87 447.87"><defs><style>.cls-1{fill:#fff;stroke:#000;stroke-miterlimit:10;stroke-width:2px;}</style></defs><title>fettaTavola disegno 8</title><path class="cls-1" d="M146.53,334c-.07-10.8,1.34-20.2,5.17-29.19,2.51-5.87,4.9-11.81,7.05-17.82A67.67,67.67,0,0,0,163,268.37c.75-11.82-1.25-22.9-7.7-33-4.11-6.47-8.15-13-12-19.6A60,60,0,0,1,135,178.93c2-22.13,13.18-38.23,32.85-48.45,33.93-17.61,71.7,2.81,82.21,32.33a126.2,126.2,0,0,1,3.62,12.89c1.51,6.21,2.76,12.49,4.22,18.71a27.1,27.1,0,0,0,7.22,13.29c3.61,3.62,9.92,5.05,14.11,2.39,4.83-3.07,9.38-6.61,13.93-10.1a82.66,82.66,0,0,1,19.73-11.62c22.41-9,48.69.76,61.6,18.54,20.07,27.64,10.09,68.55-23.11,81.59-12.41,4.88-25.05,4.46-37.69,1.24-5.57-1.42-10.94-3.6-16.48-5.14-8.08-2.25-15.14.8-19.59,8.2A36.83,36.83,0,0,0,272.12,309c-.79,9.56-1.9,19.1-2.76,28.65a61.48,61.48,0,0,1-3.88,16.75c-8.87,22.89-25.61,36.73-49.67,39.91-25.76,3.41-46.24-6.76-60.59-28.57A52.35,52.35,0,0,1,146.53,334ZM194,162.88a21.43,21.43,0,0,0-21,20.32c-.44,11.89,9.25,21.44,21.52,21.53,13.86.1,20.55-11.38,21-20.14C216.15,172.93,206,162.76,194,162.88Zm116.47,76.23c0,12.5,9.13,20.11,20.16,20.9,11.73.85,21.81-9.36,21.69-21.45A21,21,0,0,0,330,217.77C318.73,218.3,310.29,227.49,310.45,239.11Zm-82.06,96.41c1.1-13.61-7.64-22.17-19.5-23.27s-22.32,8.58-22.47,20.62a20.91,20.91,0,0,0,19.83,21.29C217.87,354.73,227.61,346.6,228.39,335.52Zm15.92-74.64c.06-11.93-8.37-20.77-20.11-21.08-12.72-.33-21.79,8.75-21.5,21.54.26,11.83,9,20.25,21,20.13C235.47,281.36,244.24,272.6,244.31,260.88Z"/></svg>