<svg id="Livello_1" data-name="Livello 1" xmlns="http://www.w3.org/2000/svg" viewBox="0 0 447.87 447.87"><defs><style>.cls-1{fill:#fff;stroke:#000;stroke-miterlimit:10;stroke-width:2px;}</style></defs><title>fettaTavola disegno 41</title><path class="cls-1" d="M179.06,182c5.74-.42,11.49-.77,17.22-1.28a76.58,76.58,0,0,1,26.63,2.45c22.61,6,36.26,20.51,40.89,43.43.75,3.75,1,7.61,1.54,11.41,1.6,10.53,6.17,19.41,14.64,26.11a133.37,133.37,0,0,1,10.34,8.59,140.36,140.36,0,0,1,13.15,13.91c16,20.43,15.48,51.46,3.08,70.48-14.69,22.53-35.49,32.21-62.17,29.57-26.35-2.6-52.54-24.37-55.44-59.49-.53-6.37-.29-12.8-.86-19.17-.87-9.93-7.24-16.54-17.23-17.51-7-.68-14-.54-21.09-.61a58.72,58.72,0,0,1-22.4-4.55,53.13,53.13,0,0,1-32.93-53.53c2.47-24.67,19.19-43.56,42.52-48.37a105.36,105.36,0,0,1,24.82-2c5.75.19,11.52,0,17.28,0Zm-31.4,74.83a21,21,0,1,0,.51-42c-11.71-.16-22.15,10.3-21.69,21.74C126.93,247.46,136.51,256.65,147.66,256.81Zm64.64-44.37a21,21,0,0,0-21.62,19.46c-.89,13,8.14,22.32,20.18,22.7,12.72.41,22-8.89,21.87-21.25A20.92,20.92,0,0,0,212.3,212.44Zm39.5,132.71c12.24.82,21.37-10.09,21.81-19.29.59-12.43-8.13-22.31-20.26-22.57-12.84-.27-21.66,8.29-21.65,21A20.52,20.52,0,0,0,251.8,345.15Z"/><path class="cls-1" d="M338.36,240.48c-25.2,1-47.81-19.34-47.93-44.77-.13-28.14,18.56-49.52,47.4-49.63,32.43-.12,48,25,48,47C385.92,218.29,367,240.7,338.36,240.48Zm-21.07-47.86a20.59,20.59,0,0,0,19.19,21.71c14.4.83,22.28-10,22.83-20.21C359.94,182.47,349.62,172,338,172,327.1,172.05,317.65,181.46,317.29,192.62Z"/></svg>