<svg id="Livello_1" data-name="Livello 1" xmlns="http://www.w3.org/2000/svg" viewBox="0 0 447.87 447.87"><defs><style>.cls-1{fill:#fff;stroke:#000;stroke-miterlimit:10;stroke-width:2px;}</style></defs><title>fettaTavola disegno 7</title><path class="cls-1" d="M196.58,126c24.75,0,47.64,15.69,55.14,44.81,1.6,6.19,2.64,12.52,4.26,18.7a49.44,49.44,0,0,0,4,10.72,26.24,26.24,0,0,0,6,7.33c4.23,3.56,9.26,4.5,14.31,1.86a125.38,125.38,0,0,0,11.35-7.13c4.25-2.84,8.19-6.21,12.66-8.65,20.69-11.34,50.52-9,68.06,12.19,21.87,26.37,14.28,71.8-23.85,85-9.9,3.42-19.87,4.53-30.15,1.48a189.23,189.23,0,0,0-18.61-4.59c-9.93-1.86-17.38,2-22.17,11.13a56.43,56.43,0,0,0-6.1,20.05c-1.08,9.52-2.08,19.13-4.32,28.42-5.34,22.12-18.78,37.88-40.5,45-42.73,13.95-75.84-16.05-81.1-45.82a76.75,76.75,0,0,1,3.48-39.65c2.55-7.23,5.41-14.36,8.17-21.52,4.94-12.88,5.49-26.25,3.91-39.72a45.7,45.7,0,0,0-3.82-12.77c-2.57-5.84-5.83-11.37-8.73-17.06a108.17,108.17,0,0,1-7.72-19.58C132.14,165.61,154.72,125.39,196.58,126Zm-1.26,35.13C186.19,161.06,174,169.59,175,184c.78,11,10.61,20.27,21.47,19.86a21.67,21.67,0,0,0,20.54-21A21.45,21.45,0,0,0,195.32,161.17Zm157.35,78.58c-1.31-13.65-12.42-21.55-22.9-20.76a21.24,21.24,0,0,0,2.86,42.39C343.68,260.51,353.06,250.39,352.67,239.75Zm-128.51.84c-11.53-.09-20.87,8.47-21.39,19.79-.49,10.7,6.87,21.62,21,22.37,11.5.61,22-10.53,21.55-22A21.31,21.31,0,0,0,224.16,240.59Zm3.09,92c.26-10.88-9-20.17-20.77-20.05-14.95.14-21.65,12-21.34,21.74.35,11.23,9.72,19.75,21.13,20.07C216.81,354.66,228.26,345.93,227.25,332.6Z"/></svg>