<svg id="Livello_1" data-name="Livello 1" xmlns="http://www.w3.org/2000/svg" viewBox="0 0 447.87 447.87"><defs><style>.cls-1{fill:#fff;stroke:#000;stroke-miterlimit:10;stroke-width:2px;}</style></defs><title>fettaTavola disegno 17</title><path class="cls-1" d="M150.15,328.2c-.53-9.32,3.07-18.39,4.94-27.77,1.12-5.62,2.81-11.16,3.51-16.82a33,33,0,0,0-7.25-25.13c-3.95-5-8.19-9.81-12.41-14.6a86.32,86.32,0,0,1-13.76-20.67,62,62,0,0,1,29.32-81.48c20.51-10,49.74-8.57,69.67,10.39a88,88,0,0,1,16,21.4c3.41,6.14,6.81,12.3,10.47,18.3a39.05,39.05,0,0,0,11.82,12.39c4.84,3.19,11.81,3.14,16.1-.63,3.35-3,6.36-6.28,9.56-9.4,3.65-3.57,7.1-7.4,11.05-10.62C324.94,162.5,368,168.49,383.42,203c13.1,29.24.28,64.14-32,74.95-10.62,3.55-21.19,4.45-32,1-4.86-1.55-9.81-2.86-14.8-4a55.59,55.59,0,0,0-9.48-1.06,8.66,8.66,0,0,0-8.46,6.51c-.72,3.71-1.51,7.61-1.11,11.31.83,7.6,2.25,15.16,3.73,22.67,4,20.47.85,39.71-11.37,56.62-16.8,23.27-40.18,33.88-68.5,29.18-28.06-4.66-47.16-21.34-56.15-48.9A65.53,65.53,0,0,1,150.15,328.2ZM220,352.08a21.49,21.49,0,0,0,21.65-21.81c-.29-10.95-10-20.56-21-20.75-11.6-.2-21.86,10.35-21.76,22C199,341.09,208.78,352.58,220,352.08ZM182,218.56c12.61.13,20.53-10.63,21-20.28.63-11.73-9.35-21.65-21.54-21.55a20.91,20.91,0,0,0-21,22C161.11,209.7,170.91,218.71,182,218.56Zm172.54,7.16c-.09-11.62-8.72-20.52-20.16-20.79a21.16,21.16,0,0,0-21.64,21.5c.18,11.8,8.76,20.17,20.44,20.77C343.58,247.74,355.22,239.63,354.55,225.72Zm-133.72,5.84c-11,.14-20.62,9.42-21.22,20.39-.63,11.19,10.15,22.23,21.72,21.73,13.62-.57,21.44-10.74,20.86-22.24A21.22,21.22,0,0,0,220.83,231.56Z"/></svg>