<svg id="Livello_1" data-name="Livello 1" xmlns="http://www.w3.org/2000/svg" viewBox="0 0 447.87 447.87"><defs><style>.cls-1{fill:#fff;stroke:#000;stroke-miterlimit:10;stroke-width:2px;}</style></defs><title>fettaTavola disegno 18</title><path class="cls-1" d="M222,402.46c-38.53.52-65.32-28.12-71.22-56.82-2.67-13-1.42-25.38,1.86-37.84,1.3-4.93,3.29-9.68,4.68-14.59a93,93,0,0,0,2.91-13,28.26,28.26,0,0,0-5.68-21.68c-3.13-4-6.65-7.75-9.95-11.65-4.12-4.87-8.68-9.46-12.19-14.74-23.75-35.77-4.25-80.2,34.66-89.53,19.22-4.6,36.73.32,51.76,13.33,6.35,5.49,11.18,12.24,15.41,19.45,3.55,6.05,7.06,12.14,10.72,18.14a61.24,61.24,0,0,0,15.27,17c6.69,5.12,13.47,4.63,18.68-1.44,1.66-1.93,3.14-4,4.65-6.08,1.89-2.58,3.55-5.35,5.64-7.75,3.35-3.83,6.65-7.82,10.53-11.08,30.43-25.56,77.35-9.68,86,29.35,7.35,33.18-20.52,71.87-64.4,62.89-5-1-9.72-3.1-14.58-4.65-4.25-1.37-8.48-2.82-12.79-4-4.07-1.1-9.32,2.92-9.34,7.42a92.86,92.86,0,0,0,1,15.19,81.53,81.53,0,0,0,3.66,12.9c3.57,10.46,4.06,21.25,3.87,32.16-.64,35.47-32.69,66.24-66.54,66.83C224.74,402.29,222.82,402.42,222,402.46Zm-.4-50.48c11.54.14,21.74-10.4,21.14-22.36a21.57,21.57,0,0,0-21.35-20.24c-11.74,0-21.78,10.63-21.18,22.36C200.78,342.69,210.71,352.08,221.61,352Zm133.3-127.74a20.82,20.82,0,0,0-20.51-20.67c-11.83-.16-22.31,10-22.1,21.47s10.5,20.45,22.89,20.42C346,245.44,355.77,235.07,354.91,224.24ZM201.17,198.17c-.32-11.13-9.81-20.18-21-20.26C166.61,177.8,158,190.78,158.56,200c.64,10.81,10.73,20.53,21.49,20.26C193.2,219.88,201.9,209.75,201.17,198.17Zm20.29,32.57c-12.15-.42-21.71,9-22,21.07-.23,9.53,8.11,20.53,20.25,20.78,12.88.27,21.84-8.89,21.89-20.92A20.65,20.65,0,0,0,221.46,230.74Z"/></svg>