<svg id="Livello_1" data-name="Livello 1" xmlns="http://www.w3.org/2000/svg" viewBox="0 0 447.87 447.87"><defs><style>.cls-1{fill:#fff;stroke:#000;stroke-miterlimit:10;stroke-width:2px;}</style></defs><title>fettaTavola disegno 45</title><path class="cls-1" d="M258.73,382.49c-28.57,1.88-58.08-20.12-61.42-54.52-.74-7.63-.82-15.29-3.21-22.72-2.21-6.91-7.1-10.53-13.82-11.63-8.32-1.36-16.59-.14-24.74,1.67-9.66,2.15-19,.8-28.36-1.85a52.42,52.42,0,0,1-37.38-44.2c-3-26.5,11.54-45.47,28.48-54.11A68.53,68.53,0,0,1,142,187.71c14.11-1.5,27.41-6,41-9.49,6.17-1.58,12.36-3.38,18.66-4.16,28.18-3.47,49.6,11.94,60.86,31.59,3.87,6.75,5,14.43,5.6,22.11.35,4.45.34,8.94.62,13.4a29.49,29.49,0,0,0,11.06,21.54c4.9,4.09,10.06,7.88,15,12a68.36,68.36,0,0,1,20.39,29.6c9.4,25.6-4,53.56-19.78,65.51C284.28,378.19,272.17,383.23,258.73,382.49ZM163.36,242.16A21.29,21.29,0,0,0,143,221.24c-11.71-.37-21.83,9.82-21.61,21.75a21.45,21.45,0,0,0,22.44,20.81A21.18,21.18,0,0,0,163.36,242.16Zm115.13,79.68a21,21,0,1,0-42,1.69c.51,11.15,10,20.42,20.94,20.52C269.06,344.15,278.86,333.84,278.49,321.84Zm-47.35-90.76c.69-10.64-8.53-20.89-19.66-21.86a21.34,21.34,0,0,0-22.94,20.33A22,22,0,0,0,208,251.68C218.78,253,230.39,242.61,231.14,231.08Z"/><path class="cls-1" d="M388.3,185c.19,36.37-30.55,58.35-59.83,52.21-15.32-3.21-26.7-11.67-35.41-24.17a36.38,36.38,0,0,1-6.28-23.66,60.73,60.73,0,0,1,7.09-25.67c10.54-19,30.66-28.26,49.7-25.81,20.72,2.66,35.47,13.79,42.28,34C387.65,177.21,388,183.07,388.3,185Zm-71,2.74c-.09,12,10.12,22.21,21.7,21.5,9.21-.56,20.1-7.75,20.25-21.1.12-11.18-8.86-20.85-19.87-21.41A21,21,0,0,0,317.31,187.73Z"/></svg>