<svg id="Livello_1" data-name="Livello 1" xmlns="http://www.w3.org/2000/svg" viewBox="0 0 447.87 447.87"><defs><style>.cls-1{fill:#fff;stroke:#000;stroke-miterlimit:10;stroke-width:2px;}</style></defs><title>fettaTavola disegno 15</title><path class="cls-1" d="M336.44,281.64c-11.6,0-19.11-1-26.29-4.2a82.83,82.83,0,0,0-10.82-3.85,37.44,37.44,0,0,0-7.54-1.15c-4.83-.35-10.42,3.41-11.91,8a51.56,51.56,0,0,0-2.36,20.78c.93,10.17,1.58,20.38,2.07,30.58,1.35,28-20.58,60.6-60.07,62.15-25.65,1-45.69-11-57.72-34.16-6.93-13.35-9.7-27.68-5.64-42.72,1.17-4.31,2.12-8.69,3.07-13.05s1.93-8.73,2.64-13.13c2.28-14.08-1.16-26.58-10.58-37.39-5-5.78-10.17-11.49-14.91-17.51-8-10.24-13.18-21.71-14.58-34.86-3-28.6,13.21-59.07,47.13-67.74,24.76-6.33,50.36,1.35,67.39,25.28,3.66,5.15,6.21,11.12,9,16.85,2.52,5.16,4.57,10.55,7,15.74a42,42,0,0,0,11.46,15.14c4.65,3.74,11.41,4,15.86.08,3.82-3.38,7.38-7.06,10.89-10.77,4.86-5.14,10.09-9.82,16.32-13.22,30.54-16.66,70-1.94,78.34,35,6.12,27.27-8.55,52.07-33.83,61.47C345.58,281.15,339,281.23,336.44,281.64Zm-24.2-53.48c-.32,12,9.43,22.38,21.06,22.35,10.69,0,20.47-9.73,20.86-20.7a20.84,20.84,0,0,0-21.11-21.95A20.59,20.59,0,0,0,312.24,228.16ZM183.56,173.41c-8.69-.21-20.25,8-20,21.13.19,11.89,10.65,22.3,21.91,21.49,10.78-.78,20.84-10.94,20.33-21.44C205.07,180.77,194.59,172.93,183.56,173.41Zm54.93,157.17a20.87,20.87,0,0,0-21.05-20c-12.34,0-21.95,9.65-21.05,21.87,1,13.66,10.21,20.56,22.9,19.77C230.72,351.5,238.89,342.29,238.49,330.58Zm3.94-75.5c.25-12.13-8-20.87-19.78-21.37-15.16-.65-22.4,11.41-22.33,21.08.08,11.35,9.6,20.44,21.08,20.54C233.2,275.43,242.18,266.78,242.43,255.08Z"/></svg>