<svg id="Livello_1" data-name="Livello 1" xmlns="http://www.w3.org/2000/svg" viewBox="0 0 447.87 447.87"><defs><style>.cls-1{fill:#fff;stroke:#000;stroke-miterlimit:10;stroke-width:2px;}</style></defs><title>fettaTavola disegno 50</title><path class="cls-1" d="M208.34,165.39c11.27-.25,22.06,3.31,32.06,9.5a72.81,72.81,0,0,1,20.77,19.64,42.36,42.36,0,0,1,8.11,21.21c.59,6.35,1.57,12.67,2.29,19,1,8.89,5.79,15.4,12.9,20.4,3.65,2.57,7.54,4.83,11.14,7.48,4.63,3.4,9.4,6.7,13.54,10.64,13.65,13,20.88,29.35,20.36,48-.64,23.15-10.78,41.92-30.74,54.42-41.36,25.87-90.22-.89-98.12-40.81-.87-4.39-1.82-8.76-2.62-13.16-.46-2.51-.52-5.1-1-7.6-2.65-13.25-10.47-18-23.9-14.37-5.54,1.5-10.9,3.67-16.42,5.27-13.88,4-27.75,4.53-41.32-1.22C94,294.74,81.87,278.36,80.1,255.39c-1.72-22.18,7.49-39.69,26-52.23a66,66,0,0,1,21.06-9,186.87,186.87,0,0,0,46-18.75C183.8,169.35,195.19,165.24,208.34,165.39Zm55.2,133.73c-11.67.55-21.78,11.78-20.63,22.91s10.93,20.05,21.87,19.69c11.78-.4,21.63-11.33,20.6-22.85C284.39,307.79,274.24,298.61,263.54,299.12ZM158.16,250.27c-.82-11.74-12.07-21.64-23.23-20.43A21.72,21.72,0,0,0,115.59,252a21.31,21.31,0,0,0,23,20.26C149.75,271.2,158.91,260.91,158.16,250.27Zm50.62-3.71c11.83-.26,20.1-9.06,20.11-21.07,0-12.4-9.43-20.54-20.57-20.74-12.43-.21-21.83,9.73-21.21,22.16C187.68,238.51,196.85,246.82,208.78,246.56Z"/><path class="cls-1" d="M388.58,181c-.29,20.22-9.08,35.62-27.23,44.64-15.07,7.48-30.76,7.05-46-.06-7.6-3.54-13.76-9.08-19.19-15.44a35.81,35.81,0,0,1-9-22.62c-.55-22.88,10-44.69,32.41-53.5,33.82-13.29,67.92,10.57,69.09,43.16C388.62,178.47,388.58,179.75,388.58,181Zm-70.74.41c.17,12.65,9.71,20.12,20.51,20.48A21,21,0,0,0,359.55,180c-.32-12.11-10.08-20.78-22.6-20.2A20.14,20.14,0,0,0,317.84,181.43Z"/></svg>