<svg id="Livello_1" data-name="Livello 1" xmlns="http://www.w3.org/2000/svg" viewBox="0 0 447.87 447.87"><defs><style>.cls-1{fill:#fff;stroke:#000;stroke-miterlimit:10;stroke-width:2px;}</style></defs><title>fettaTavola disegno 34</title><path class="cls-1" d="M97.44,224.18c0-29.12,19.38-52.19,48.11-58.78,13.14-3,25.5-.59,37.82,2.61,13.59,3.52,26.9,8.17,40.3,12.42a97.82,97.82,0,0,1,32,17.06c4,3.19,8.07,6.3,12.25,9.23,5.8,4.06,10.62,2.43,13.52-4.51,2-4.72,3.67-9.55,5.59-14.29a65.83,65.83,0,0,1,10.69-18.09c21.32-25.08,60.83-24.25,80.19,2.08,12.46,17,14,35.71,4.53,54.34-9.15,18-24.69,27-45,27.53a52.57,52.57,0,0,1-29.13-8.18c-4.9-3-9.5-6.5-14.29-9.69-2.11-1.41-4.34-2.67-6.56-3.91-2.62-1.48-6.9-.07-8.26,2.63-.29.57-.85,1-1,1.61-3.48,12.13-3.43,24.06,2.7,35.38,2.73,5.05,6.28,9.64,9.2,14.59,3.24,5.49,6.76,10.92,9.16,16.79,15.91,38.81-10.9,75.72-42.44,82.36-29,6.12-59.5-9-70.13-36.7-2.51-6.56-4.56-13.31-4.65-20.49-.06-4.47-.28-8.95-.66-13.41-1.09-12.7-7.44-21.54-19.59-25.84-4.82-1.7-9.84-2.85-14.63-4.62-6.57-2.43-13.37-4.57-19.45-8A58.42,58.42,0,0,1,97.44,224.18Zm239.24-.11c10.81.24,20.77-9,21.59-20,.85-11.55-9.11-22.34-20.9-22.64-10.67-.26-20.73,9.07-21.62,20.05C314.84,212.85,325,223.82,336.68,224.07ZM157.07,203.39c-11.47-.28-20.49,8.51-20.77,20.25-.3,12.75,9.19,22,21.37,21.84A21.2,21.2,0,0,0,178.49,223C177.89,211.74,168.72,203.24,157.07,203.39Zm57.2,14.43c-11.75,0-22,10.45-21.46,21.9a21.21,21.21,0,0,0,21.31,19.93c11.62.05,20.79-8.47,21.27-19.77A21.17,21.17,0,0,0,214.27,217.82Zm49.67,108.56c.09-11.95-10.14-22.26-21.53-21.7a21.6,21.6,0,0,0-20.2,21.18,20.62,20.62,0,0,0,19.67,21.31C254.28,347.72,263.85,338.7,263.94,326.38Z"/></svg>