<svg id="Livello_1" data-name="Livello 1" xmlns="http://www.w3.org/2000/svg" viewBox="0 0 447.87 447.87"><defs><style>.cls-1{fill:#fff;stroke:#000;stroke-miterlimit:10;stroke-width:2px;}</style></defs><title>fettaTavola disegno 38</title><path class="cls-1" d="M317.47,325c-.41,36.87-28.26,62.42-56.14,67.77-38.07,7.3-78.94-20.31-81.7-63.33-.29-4.46-.18-8.94-.37-13.4a68.71,68.71,0,0,0-.81-9.53c-1.69-8.93-6.78-15.11-15.73-17.38-7.42-1.88-15-3.24-22.46-4.85a53,53,0,0,1-23.73-11.86C99.29,257.56,94.23,238.34,99.25,217c4.93-21,19-34,40-39.5a66.23,66.23,0,0,1,26.54-1.6c14.53,2.07,29.11,3.84,43.63,5.91a133.47,133.47,0,0,1,15,3c21,5.48,34,19.34,40.69,39.48,1.22,3.61,1.67,7.47,2.65,11.17,2.84,10.75,8.1,20.06,16.51,27.5,3.34,3,6.63,6,9.7,9.26A130.85,130.85,0,0,1,304,283.7C313.51,296.42,317.93,310.82,317.47,325Zm-89.92-.62A20.89,20.89,0,0,0,249.07,346c11.31-.41,20.25-8.18,20.5-20.76a21,21,0,0,0-21.51-21.73A21.62,21.62,0,0,0,227.55,324.39ZM191.8,235c-.41,13.54,9.72,21.89,21.09,21.88a21.11,21.11,0,0,0,21-20.29c.51-12.08-9.52-21.24-19.36-21.69C201.8,214.27,192.11,222.72,191.8,235Zm-40.67-25.17c-12,.63-20.74,9.48-19.83,22.79A20.57,20.57,0,0,0,153,251.7a21,21,0,0,0,20.12-21C173.05,218.42,163.54,209.37,151.13,209.78Z"/><path class="cls-1" d="M337.55,242.81c-25.2.93-46.46-20.52-46.11-43.89.46-30.65,23.86-47.92,47.09-47.39,25.2.58,44.81,19.87,44.82,45.25C383.37,228.19,358.24,243.75,337.55,242.81Zm-.42-66.36A20.7,20.7,0,0,0,316.62,197c.11,14.23,11.71,21.7,21.86,21.53,10.81-.18,20.41-10.16,20.74-21C359.57,186,349.4,176.26,337.13,176.45Z"/></svg>