<svg id="Livello_1" data-name="Livello 1" xmlns="http://www.w3.org/2000/svg" viewBox="0 0 447.87 447.87"><defs><style>.cls-1{fill:#fff;stroke:#000;stroke-miterlimit:10;stroke-width:2px;}</style></defs><title>fettaTavola disegno 4</title><path class="cls-1" d="M200.76,122.83c24.52.07,44.17,14.12,52,37.7,2.61,7.85,4.33,16,6.13,24.12a37.18,37.18,0,0,0,5.84,14,20.4,20.4,0,0,0,9,6.91,14.37,14.37,0,0,0,9.36.75c6.89-1.78,13-5.28,19.18-8.65,9.83-5.39,20.4-7,31.48-6.78a51.81,51.81,0,0,1,47.54,35.73c8.53,26.36-1.89,53-25.77,65.51C345,297.65,333.74,299.33,322,298c-5.08-.56-10.08-1.75-15.15-2.35-10.47-1.25-18.82,2.81-25.08,11a60.37,60.37,0,0,0-10.15,20.5c-2.06,7.38-4.27,14.73-6.4,22.09a73.36,73.36,0,0,1-9.68,20.78c-14.41,21.37-40.32,32.24-65.23,27-26.94-5.67-44-22.48-50.64-49.16a60.34,60.34,0,0,1,.89-32.28c2.6-8.55,5.64-17,8.68-25.38a164.67,164.67,0,0,0,9.21-43c.93-11.65-.09-23-4.66-33.86-1.48-3.53-2.78-7.14-4.22-10.7-3.94-9.69-4.65-19.8-4.25-30.14,1-26.72,25.9-50,51.57-49.77C198.2,122.84,199.48,122.83,200.76,122.83ZM330.18,265.4c13.26.35,21.51-10.42,21.43-21.71-.07-10.81-10.08-20.52-20.85-20.86-11.25-.36-21.4,10.25-21.21,22.18A20.57,20.57,0,0,0,330.18,265.4ZM224.05,284.9c12.37.33,22.17-9,22.07-21-.08-11-9.14-20.46-20.36-21.28s-22.3,9.83-22.08,21.48C203.89,275.57,212.92,285.07,224.05,284.9ZM179,178.14a21.61,21.61,0,0,0,20.54,21c11.6.49,22-9.88,21.78-21.63a21.39,21.39,0,0,0-22.43-20.87C188,157.19,178.87,167.09,179,178.14Zm23.69,135.1c-12.29-.31-20.61,8.44-21.51,20-.93,11.92,9.43,22,21.79,21.71,11.77-.29,20.36-9.18,20.33-21S214.5,313.34,202.7,313.24Z"/></svg>