<svg id="Livello_1" data-name="Livello 1" xmlns="http://www.w3.org/2000/svg" viewBox="0 0 447.87 447.87"><defs><style>.cls-1{fill:#fff;stroke:#000;stroke-miterlimit:10;stroke-width:2px;}</style></defs><title>fettaTavola disegno 11</title><path class="cls-1" d="M187.72,127.64c28,.76,46.37,12.58,57.53,35.27,2.79,5.67,4.3,12,6.38,18,1.87,5.43,3.49,11,5.65,16.26a37.36,37.36,0,0,0,4.93,8.15c4.66,6.2,12.58,7.48,18.69,3,3.07-2.26,5.81-5,8.73-7.46,3.9-3.3,7.51-7.06,11.78-9.78,19.61-12.45,39.86-13.3,59.58-.86,17,10.74,25.17,27.22,24,47.16s-11,35.17-29,44.34c-12.4,6.3-25.42,8.32-39,3.61-6.63-2.3-13.29-4.56-20-6.67-8.52-2.7-14.87-.19-19.64,7.39a44.53,44.53,0,0,0-6.58,21.77c-.37,7-.44,14.05-.48,21.08a70.07,70.07,0,0,1-3.53,20.69c-5.55,17.62-17.1,29.61-34,36.67-7.2,3-14.89,3.48-22.57,3.44-38.91-.17-61.39-36.87-55.67-67.6,1.17-6.25,3.11-12.37,4.7-18.55,1.11-4.33,2.29-8.64,3.34-13,3.81-15.72,1.21-30.46-7.16-44.16-3-4.9-6.64-9.39-9.83-14.17a166.54,166.54,0,0,1-9.18-14.58c-18.55-35.33-.35-76.21,35-87.15C177.46,128.63,184,128.28,187.72,127.64ZM201.35,257c-.69,9.46,7.57,21.25,19.51,21.63,12.54.4,22.49-8,23.09-20.06.54-10.78-8.39-20.73-19.64-21.88C212.83,235.51,201.93,245.16,201.35,257Zm10.73,54.27c-11.9-.14-22,10.07-21.65,21.81.35,10.93,10.06,20.89,21,20.64,13.23-.3,21.89-10.8,21.64-21.94C232.86,320.93,223.12,311.41,212.08,311.28ZM189,209.48a21,21,0,0,0,21.9-19.58c.71-11.77-7.28-22.24-20.85-22.44-11.88-.18-20.7,8.62-21,20.43A20.8,20.8,0,0,0,189,209.48Zm164,24.85c.1-10.92-8.36-21.56-22.08-20.75-12.35.73-19.77,9-19.68,21.08.1,12.51,9.35,21.32,21.9,20.85A20.86,20.86,0,0,0,353,234.33Z"/></svg>