<svg id="Livello_1" data-name="Livello 1" xmlns="http://www.w3.org/2000/svg" viewBox="0 0 447.87 447.87"><defs><style>.cls-1{fill:#fff;stroke:#000;stroke-miterlimit:10;stroke-width:2px;}</style></defs><title>fettaTavola disegno 9</title><path class="cls-1" d="M208.51,389.5c-22.19.6-44.27-14.49-52.65-37.94a40.49,40.49,0,0,1-2-9.31c-1.24-12.18-.75-24.19,3.21-36a126.92,126.92,0,0,0,4.63-18.54c3.71-21.53,1.1-41.89-11.3-60.56a92.88,92.88,0,0,1-12.82-27.69c-9.16-34.83,16.56-69.75,52.49-71.4,26.57-1.23,48.49,14.44,57,37,2,5.37,3.42,11,5.17,16.42s3.32,11,5.49,16.29a31,31,0,0,0,5.3,7.89c5,5.82,12.8,7.21,19,3.17,4.25-2.78,8.11-6.18,12.12-9.34a78.48,78.48,0,0,1,16.12-10.21c24.12-10.87,58-2.35,70.16,27.89,9.23,22.92,2.79,56.41-30.1,69.31a36.7,36.7,0,0,1-9.31,2c-10.9,1.23-21.66.83-32.1-3.14a78.25,78.25,0,0,0-11-3.15c-7.66-1.69-13.78,1-18.56,7a37.36,37.36,0,0,0-7.57,15.33c-1.47,6.86-2.67,13.77-3.87,20.67C266.54,332.87,266,340.62,264,348c-5.35,19.2-17.9,32.21-36.66,38.65C221.41,388.63,214.8,388.59,208.51,389.5ZM331,258.44c11.88.48,22.36-9.5,22.3-21.25-.05-10.79-9.6-20.74-20.49-21.35-11.44-.63-22.22,9.77-22.21,21.43A21.59,21.59,0,0,0,331,258.44ZM192.83,206.08c12.21.17,22-9.51,21.73-21.38-.3-11-9.71-20.2-20.94-20.37A21,21,0,0,0,172,185.81C172.27,197.14,181.28,205.92,192.83,206.08Zm16,105.52c-12.32.71-20.6,10.24-20.74,20.85a21.24,21.24,0,1,0,42.43-1.08C229.79,320.36,219.78,311.25,208.83,311.6Zm-6.37-52.07c0,12,10.56,22.59,22,21.35,12.86-1.4,20.11-9.89,20.37-21.23a21.19,21.19,0,0,0-42.37-.12Z"/></svg>