<svg id="Livello_1" data-name="Livello 1" xmlns="http://www.w3.org/2000/svg" viewBox="0 0 447.87 447.87"><defs><style>.cls-1{fill:#fff;stroke:#000;stroke-miterlimit:10;stroke-width:2px;}</style></defs><title>fettaTavola disegno 27</title><path class="cls-1" d="M385.46,212.66c-.06,30.32-25.67,53.13-55.63,49.25-5.65-.73-11.17-2.57-16.68-4.13-4.91-1.4-9.68-3.3-14.6-4.63a11.55,11.55,0,0,0-12.95,6,41.75,41.75,0,0,0-3.67,10.78,46.32,46.32,0,0,0,1.4,20.88c1.62,5.52,3.53,11,5,16.51,2.75,10.62,4.05,21.37,1.79,32.27-4.37,21.1-16.73,35.4-36.75,43.19C222,395,182.52,376.27,175.91,336.23c-.73-4.4-.77-8.91-1.27-13.36-.56-5.07-1.13-10.16-1.94-15.19a41.62,41.62,0,0,0-12-23.54A216,216,0,0,0,143.45,269c-7-5.58-14.08-11.08-19.83-18-13.25-16-17-34.24-11.54-54,6.57-23.77,28.31-42.22,57.94-40.82a69.88,69.88,0,0,1,29.47,7.57c18.68,9.76,37.44,19.37,56.16,29.07,4,2.05,7.72,4.56,11.83,6.26,5.8,2.41,11.47,1.6,15.86-3.11s8.17-9.82,12.34-14.65a53.27,53.27,0,0,1,30.8-18.07,49.88,49.88,0,0,1,52.36,23.78C383.85,195.79,385.48,202.11,385.46,212.66Zm-28.92.31c.2-11.49-8.34-21.09-19.5-21.73-11-.64-22,7-22.57,20.69-.46,11.35,8,21.54,21.52,21.78C347.07,233.9,356.35,224.19,356.54,213Zm-168.72.64c.12-12.27-9.76-22.36-21.34-21.78a21.81,21.81,0,0,0-20.58,21,21.42,21.42,0,0,0,21.65,21.63A20.8,20.8,0,0,0,187.82,213.61Zm24.5,114.59c-.09,11.11,9,20.91,20,21.48a21.43,21.43,0,0,0,22.34-21c.18-11.85-10.24-22.11-21.88-21.53A21.61,21.61,0,0,0,212.32,328.2Zm25.77-84.28A21.7,21.7,0,0,0,217.6,223c-11.46-.43-21.33,9.83-21.16,22,.18,12.4,9.7,21.14,22.24,20.42C230.05,264.77,238.38,255.55,238.09,243.92Z"/></svg>