<svg id="Livello_1" data-name="Livello 1" xmlns="http://www.w3.org/2000/svg" viewBox="0 0 447.87 447.87"><defs><style>.cls-1{fill:#fff;stroke:#000;stroke-miterlimit:10;stroke-width:2px;}</style></defs><title>fettaTavola disegno 31</title><path class="cls-1" d="M157.13,161.58c14.84-.62,24.73,2,34.12,6.24q22.68,10.37,45.06,21.39c9.24,4.53,17.27,10.94,25.09,17.57,13.64,11.58,16.45,10.43,22.25-5.74,1.51-4.21,2.84-8.55,4.93-12.48a83,83,0,0,1,9.24-14.49c9.07-10.78,20.68-16.86,35-17.18,9.69-.21,19.18.26,27.87,5.34,16.79,9.82,25.95,24.12,26.18,43.84.26,21.34-9.39,36.7-28.1,46.46A37.77,37.77,0,0,1,348,256.14c-15.75,2.7-30.59.47-43.84-9.1-5.7-4.12-11.29-8.4-17.07-12.41-3.84-2.68-9.26-.28-10.52,4.53-3.34,12.82-3,25.39,3.23,37.32,3,5.66,6.44,11.06,9.72,16.54,7.12,11.88,9.63,24.64,9.46,38.52-.3,24.87-22.87,53.92-55.77,55.82a60.36,60.36,0,0,1-59-34.93c-1.84-4.11-3.5-8.22-3.93-12.75-.6-6.36-1.33-12.72-1.84-19.09-.4-5.09-.41-10.23-.88-15.32-.82-9-5.53-15.69-13.23-20-6.13-3.4-12.79-5.82-19.08-9s-12.93-5.88-18.43-10.09c-19.68-15.08-27.08-35.59-22-59.48,5-23.28,20.29-37.89,43.35-44A44,44,0,0,1,157.13,161.58Zm58,100.68a20.71,20.71,0,0,0,21.62-21.39c-.49-10.34-7.23-20.15-20.71-20.32-12.6-.17-21.81,8.93-21.56,21.28A20.78,20.78,0,0,0,215.16,262.26Zm-74.62-42.63a20.8,20.8,0,0,0,22.08,21c12.16-1.14,20-8.73,19.93-21.24,0-13.86-10.89-21.47-22-20.93A21,21,0,0,0,140.54,219.63ZM218,326.39c-.71,14.69,12.22,22.48,21.22,22.2a22,22,0,0,0,21.38-20.46c1-11.25-9.73-21.94-21.54-22A21.07,21.07,0,0,0,218,326.39ZM357.52,206.55c-.18-11.74-9-20.33-20.92-20.39-14-.08-20.69,10.53-21.34,20.21-.8,11.74,9.76,21.78,22.1,21.39A20.48,20.48,0,0,0,357.52,206.55Z"/></svg>