<svg id="Livello_1" data-name="Livello 1" xmlns="http://www.w3.org/2000/svg" viewBox="0 0 447.87 447.87"><defs><style>.cls-1{fill:#fff;stroke:#000;stroke-miterlimit:10;stroke-width:2px;}</style></defs><title>fettaTavola disegno 21</title><path class="cls-1" d="M154.54,310.61c.16-3.32.4-8.44.66-13.55.54-10.84-3.35-20-10.55-27.92-3.87-4.25-8.22-8.08-12-12.42-5-5.77-10.42-11.4-14.41-17.86-22.31-36.12-6.07-85,35.72-98.78,22.69-7.46,44.21-4,63.54,10.57,7.2,5.44,13,12.24,18.89,19s11.73,13.53,17.89,20a46.33,46.33,0,0,0,15.58,11c4.41,1.85,8.77,1.85,12.81-.89a73.83,73.83,0,0,0,7.51-5.9c3.81-3.41,7.33-7.15,11.22-10.46,13.15-11.17,28.61-14.23,45-10.7,15.23,3.28,26.33,12.84,32.92,27,12.68,27.27-1.2,60.91-33.94,69.17-8.12,2.05-16.48,1.59-24.71-.4a145.87,145.87,0,0,0-15.05-2.92,21.76,21.76,0,0,0-7.54.7,7.14,7.14,0,0,0-5.5,4.86c-1,3.66-2.15,7.51-1.93,11.2a156.05,156.05,0,0,0,2.77,18.94c1,5.65,2.72,11.18,3.66,16.85,6.1,36.7-17.36,73.65-53.43,81.89-41.6,9.51-75-12.8-87.11-47.72-3.16-9.1-3.7-18.79-3.2-28.44C153.53,320,154,316.21,154.54,310.61Zm85.86-61c.71-13.19-11-21.11-19.69-21.42-12.25-.44-22.18,8.76-22.2,20.87,0,11.93,10.3,22.28,21.66,21.72A21.6,21.6,0,0,0,240.4,249.61ZM197,203.51a21.46,21.46,0,0,0-20.58-20.93c-14.65-.36-22.17,12.48-22,21.47.14,10.77,9.92,20.71,20.68,21.14C186.44,225.64,197.1,215.12,197,203.51Zm49.95,126.21c-.08-11.75-10.47-21.31-22.62-20.83a21.26,21.26,0,0,0-20.09,21.31c.18,10.92,9.63,20.81,20.58,21.25C234.59,351.84,246.86,342.92,246.94,329.72ZM355.22,222.83c1.12-13.57-7.59-22.19-19.47-23.33-11.7-1.12-22.38,8.73-22.51,20.67a20.86,20.86,0,0,0,19.85,21.27C344.86,242,354.49,234,355.22,222.83Z"/></svg>