<svg id="Livello_1" data-name="Livello 1" xmlns="http://www.w3.org/2000/svg" viewBox="0 0 447.87 447.87"><defs><style>.cls-1{fill:#fff;stroke:#000;stroke-miterlimit:10;stroke-width:2px;}</style></defs><title>fettaTavola disegno 16</title><path class="cls-1" d="M334.07,281.68c-8.42,0-16-.73-23.24-3.72a117,117,0,0,0-12.7-4.29c-10.38-2.95-17.71,2.44-17.75,13.56a88,88,0,0,0,1.95,18.95,113.33,113.33,0,0,1,2.49,26.64c-.47,27.8-17.68,53-44,61.25-44.5,13.84-79-13.74-86.7-47-2.35-10.14-3.16-20.13-.5-30.3,1.29-4.93,2.37-9.91,3.56-14.87s2.59-9.89,3.59-14.89a33.51,33.51,0,0,0-6.21-27.21c-3.76-5.13-8.3-9.68-12.3-14.65-4.41-5.45-9.21-10.72-12.79-16.7-19.24-32.18-6.52-69.95,22.26-86.48a62.36,62.36,0,0,1,79.61,14.66c5.3,6.49,9.05,13.88,12.71,21.35,2.8,5.73,5.52,11.52,8.57,17.11a33,33,0,0,0,10.18,11.29c4.43,3.11,10.16,3.3,14.22,0a81.12,81.12,0,0,0,7-6.5c3.1-3.22,5.91-6.72,9.06-9.89,14.74-14.8,32.61-19.43,52.78-15.49,22,4.29,39.44,24.14,41.73,46.89,2.52,25-10.57,47-33.56,56.86C347.31,281.11,340.39,281.47,334.07,281.68Zm-1.53-74.88c-11.29.24-20.64,9.47-20.81,20.51-.17,11.63,10.11,21.48,22.13,21.2a21.12,21.12,0,0,0,20.62-20.64C354.64,215.77,345,206.52,332.54,206.8ZM221.28,274.65c11.22-.09,20.82-9,21-20.35.15-12.16-8.5-22-21.43-21.77-13.54.18-21.49,11-21,22.23C200.3,265.74,210,274.74,221.28,274.65ZM183.14,217a21.5,21.5,0,0,0,21.06-20.37c.45-11.28-10.33-22.26-21.67-22.07-11.53.19-21.55,11.07-20.91,22.7A21.15,21.15,0,0,0,183.14,217Zm34.78,93.23A20.93,20.93,0,0,0,197.42,331c-.1,10.26,7.74,21.6,21.89,21,11.54-.46,20.35-9.09,20.46-20.52A21,21,0,0,0,217.92,310.25Z"/></svg>